<svg width="32" height="32" viewBox="0 0 32 32" fill="none" xmlns="http://www.w3.org/2000/svg">
<g clip-path="url(#clip0_2098_1488)">
<path d="M32.0003 16C32.0003 7.16342 24.8369 0 16.0003 0C9.84306 0 6.05018 3.47307 6.0397 3.4789C6.0397 3.4789 5.88202 3.67573 5.85253 3.80656C5.61297 4.86996 5.38916 6.29522 5.38916 7.33522C5.38916 16.1718 12.841 23.3335 21.6775 23.3335C25.0803 23.3335 28.8661 21.7026 31.3998 19.7417C31.4565 19.6979 31.6363 19.4032 31.6363 19.4032C31.6475 19.335 32.0003 17.9302 32.0003 16Z" fill="#AFE6FF"/>
<path d="M5.67738 6.88183C5.67738 5.71383 5.80331 4.57576 6.04099 3.47891C3.25385 5.69934 1.22549 8.83126 0.404785 12.423L6.69705 12.5113C6.03854 10.76 5.67738 8.86326 5.67738 6.88183Z" fill="#9DC6FB"/>
<path d="M26.1494 22.2476V28.3685C28.8754 26.1311 30.8569 23.005 31.6372 19.4033C30.0309 20.6828 28.1728 21.6594 26.1494 22.2476Z" fill="#9DC6FB"/>
<path d="M23.3407 29.6288H9.70491L7.96863 29.84C10.3292 31.213 13.0728 32 16.0005 32C18.9154 32 21.6619 31.2158 24.0297 29.8398L23.3407 29.6288Z" fill="#6E64C3"/>
<path d="M23.2763 10.0668C22.5544 10.0668 21.911 9.62555 21.6355 8.95825C21.6325 8.95097 21.6295 8.94363 21.6264 8.93636C21.3485 8.26831 21.4895 7.49974 22.0011 6.98806L22.5249 6.46426L19.3913 3.33058L18.8675 3.85444C18.3558 4.36607 17.5873 4.50712 16.9192 4.22916C16.9119 4.22614 16.9047 4.22313 16.8974 4.22012C16.2301 3.94461 15.7888 3.30128 15.7888 2.57934V1.83838H11.3572V2.57927C11.3572 3.30122 10.9159 3.94454 10.2485 4.22006C10.2413 4.22307 10.234 4.22608 10.2267 4.22909C9.55866 4.50705 8.79003 4.36607 8.27841 3.85438L7.75461 3.33058L6.23254 8.72453L7.64688 18.2458L19.0849 19.1095L22.5249 18.101L22.0011 17.5772C21.4895 17.0655 21.3485 16.2969 21.6264 15.6289C21.6294 15.6216 21.6325 15.6143 21.6355 15.607C21.911 14.9397 22.5543 14.4984 23.2762 14.4984H24.0172V10.0668L23.2763 10.0668ZM14.3558 16.3807L13.868 16.5179C10.871 17.3606 8.23863 14.3469 9.47665 11.4904C9.85714 9.51148 11.636 8.03 13.7447 8.11465C15.9035 8.2013 17.6559 9.95502 17.7411 12.1138C17.8243 14.2246 16.3385 16.0043 14.3558 16.3807Z" fill="#528ECB"/>
<path d="M13.5726 5.72769C11.3585 5.72769 9.40101 6.82548 8.21438 8.50648L7.96948 10.5657L9.47762 11.4908C9.84776 9.56593 11.5398 8.11138 13.5727 8.11138C15.8765 8.11138 17.7441 9.97899 17.7441 12.2828C17.7441 14.319 16.2848 16.0132 14.3553 16.3796L15.3819 17.8081L17.3363 17.65C19.0245 16.4643 20.1278 14.5025 20.1278 12.2828C20.1277 8.66253 17.1929 5.72769 13.5726 5.72769Z" fill="#4A80AA"/>
<path d="M21.0247 18.1676C18.5948 18.1676 16.317 17.5165 14.3558 16.3798C11.4559 16.9304 8.92103 14.386 9.47777 11.4907C8.3508 9.53558 7.70591 7.26754 7.70591 4.84884C7.70591 4.347 7.73465 3.85201 7.78867 3.3646L7.75473 3.33066L4.62111 6.46434L5.14491 6.98813C5.65659 7.49976 5.79758 8.26838 5.51962 8.93643C5.51661 8.94371 5.5136 8.95099 5.51058 8.95827C5.23507 9.62556 4.59175 10.0668 3.8698 10.0668H3.12891V14.4985H3.8698C4.59175 14.4985 5.23507 14.9398 5.51058 15.6071C5.5136 15.6143 5.51661 15.6216 5.51962 15.6289C5.79758 16.297 5.65653 17.0656 5.14491 17.5772L4.62111 18.101L7.75473 21.2347L8.27858 20.7109C8.79027 20.1992 9.55884 20.0582 10.2269 20.3362C10.2342 20.3392 10.2414 20.3422 10.2488 20.3452C10.9161 20.6208 11.3574 21.2641 11.3574 21.986V22.7269H15.789V21.986C15.789 21.2641 16.2303 20.6208 16.8976 20.3452L16.9194 20.3362C17.5874 20.0583 18.356 20.1992 18.8677 20.7109L19.3915 21.2347L22.5251 18.101L22.5089 18.0848C22.0215 18.1389 21.5265 18.1676 21.0247 18.1676Z" fill="#4A80AA"/>
<path d="M14.3557 16.3798C14.3556 16.3798 14.3554 16.3798 14.3553 16.3798C11.4591 16.9295 8.92075 14.388 9.47761 11.4909L9.47768 11.4907C8.94171 10.5609 8.51504 9.56019 8.21468 8.50626C7.46093 9.5738 7.01794 10.8765 7.01794 12.2827C7.01794 15.903 9.95278 18.8378 13.5731 18.8378C14.9737 18.8378 16.2715 18.3982 17.3367 17.6499C16.2837 17.347 15.2842 16.9179 14.3557 16.3798Z" fill="#407093"/>
<path d="M13.5722 12.423L12.2948 23.3335L13.5722 29.8389H24.0287C24.413 29.6156 24.7873 29.3767 25.1507 29.123L27.0385 13.6779L13.5722 12.423Z" fill="#FFC305"/>
<path d="M0.128296 18.0366C0.762021 23.0248 3.70652 27.3601 7.96848 29.839H13.572V12.423L0.128296 18.0366Z" fill="#FFA50A"/>
<path d="M29.7055 18.0365H16.1309L13.5723 12.423H27.1468L29.7055 18.0365Z" fill="#FFD23C"/>
<path d="M13.5722 12.423H0.402761C0.139984 13.5732 0 14.7701 0 16C0 16.69 0.0441725 17.3695 0.128878 18.0365H11.2451L13.5722 12.423Z" fill="#FFC305"/>
<path d="M22.3329 12.7322C22.1791 12.5784 21.9598 12.5097 21.7458 12.5484L17.2829 13.355C17.0087 13.4045 16.7948 13.6201 16.7472 13.8946L16.5735 14.8977L26.7181 25.6188L30.4446 20.8439L22.3329 12.7322ZM18.9921 15.5695C18.678 15.9131 18.0927 15.888 17.7742 15.5695C17.4328 15.2281 17.459 14.6963 17.7742 14.3516C18.0883 14.008 18.6735 14.0331 18.9921 14.3516C19.3335 14.693 19.3072 15.2248 18.9921 15.5695Z" fill="#F6F1F1"/>
<path d="M27.0384 27.5796V25.5561L26.9813 25.6132C26.7223 25.8722 26.3022 25.8722 26.0431 25.6132L16.6036 16.1737L16.0124 19.5873C15.9756 19.7999 16.0445 20.0171 16.197 20.1697L25.1511 29.1236C25.819 28.6574 26.4496 28.1406 27.0384 27.5796Z" fill="#FFA50A"/>
<path d="M30.4446 20.8439L26.9513 24.3372C26.6922 24.5963 26.2721 24.5963 26.013 24.3372L16.5735 14.8977L15.9823 18.3114C15.9454 18.524 16.0143 18.7411 16.1669 18.8937L25.6419 28.3687C25.901 28.6278 26.321 28.6278 26.5801 28.3687L31.8057 23.1432C32.0647 22.8841 32.0647 22.464 31.8057 22.205L30.4446 20.8439Z" fill="#EFE7E4"/>
<path d="M21.1862 18.9823C21.6703 18.4982 20.318 17.3139 21.2542 16.3777C21.8543 15.7776 22.6065 16.0737 23.1065 16.5738C23.3185 16.7858 23.8627 17.41 23.5506 17.722C23.4427 17.83 23.1505 17.978 22.9746 17.802C22.8305 17.658 22.9065 17.4299 22.5785 17.1019C22.2944 16.8178 22.0624 16.8179 21.9383 16.9419C21.5383 17.3419 22.8825 18.5342 21.8743 19.5424C21.2982 20.1185 20.566 20.0105 19.9859 19.4304C19.4619 18.9063 19.2778 18.2101 19.5419 17.9461C19.6779 17.8101 19.9979 17.7301 20.1499 17.8821C20.338 18.0702 20.162 18.4862 20.534 18.8584C20.7181 19.0422 20.9942 19.1743 21.1862 18.9823Z" fill="white"/>
<path d="M23.6625 19.6184L24.2627 20.2186C24.3827 20.3386 24.3346 20.5226 24.2066 20.6506C24.0987 20.7586 23.9146 20.8307 23.7826 20.6987L23.1825 20.0985L22.5023 20.7787L23.5746 21.8509C23.6946 21.971 23.6346 22.167 23.4866 22.3151C23.3585 22.4431 23.1625 22.5271 23.0305 22.3951L21.6062 20.9708C21.4702 20.8348 21.3982 20.6347 21.5262 20.5067L24.0667 17.9662C24.1947 17.8382 24.3948 17.9102 24.5308 18.0463L25.955 19.4705C26.0871 19.6025 26.0031 19.7986 25.875 19.9266C25.727 20.0746 25.5309 20.1347 25.4109 20.0146L24.3387 18.9423L23.6625 19.6184Z" fill="white"/>
<path d="M24.3511 21.8751L25.4113 20.8149C26.0994 20.1267 26.7836 20.2987 27.3357 20.8508C27.8878 21.4029 28.0638 22.091 27.3757 22.7792L26.3155 23.8394C25.6274 24.5276 24.9392 24.3516 24.3871 23.7994C23.8349 23.2473 23.663 22.5632 24.3511 21.8751ZM26.7515 22.1551C27.0276 21.879 27.0156 21.619 26.7916 21.395C26.5676 21.1709 26.3114 21.1629 26.0354 21.4389L24.9752 22.4991C24.6991 22.7752 24.7072 23.0312 24.9312 23.2553C25.1553 23.4793 25.4153 23.4913 25.6914 23.2152L26.7515 22.1551Z" fill="white"/>
<path d="M17.9124 14.9404C17.7917 14.9404 17.6708 14.8946 17.5782 14.8028L15.4803 12.7239C15.2941 12.5393 15.2926 12.2387 15.4773 12.0524C15.6619 11.8662 15.9625 11.8648 16.1488 12.0494L18.2467 14.1283C18.4329 14.3129 18.4344 14.6135 18.2497 14.7998C18.1569 14.8934 18.0347 14.9404 17.9124 14.9404Z" fill="#A55A3C"/>
</g>
<defs>
<clipPath id="clip0_2098_1488">
<rect width="32" height="32" fill="white"/>
</clipPath>
</defs>
</svg>
