<svg width="278" height="144" viewBox="0 0 278 144" fill="none" xmlns="http://www.w3.org/2000/svg">
<path d="M0.5 4C0.5 2.067 2.067 0.5 4 0.5H274C275.933 0.5 277.5 2.067 277.5 4V140C277.5 141.933 275.933 143.5 274 143.5H4C2.06701 143.5 0.5 141.933 0.5 140V4Z" fill="white"/>
<path d="M0.5 4C0.5 2.067 2.067 0.5 4 0.5H274C275.933 0.5 277.5 2.067 277.5 4V140C277.5 141.933 275.933 143.5 274 143.5H4C2.06701 143.5 0.5 141.933 0.5 140V4Z" fill="white"/>
<path d="M0.5 4C0.5 2.067 2.067 0.5 4 0.5H274C275.933 0.5 277.5 2.067 277.5 4V140C277.5 141.933 275.933 143.5 274 143.5H4C2.06701 143.5 0.5 141.933 0.5 140V4Z" stroke="#D8DEE9"/>
<path d="M0.5 4C0.5 2.067 2.067 0.5 4 0.5H274C275.933 0.5 277.5 2.067 277.5 4V140C277.5 141.933 275.933 143.5 274 143.5H4C2.06701 143.5 0.5 141.933 0.5 140V4Z" stroke="#FAB832"/>
<path d="M0.5 4C0.5 2.067 2.067 0.5 4 0.5H274C275.933 0.5 277.5 2.067 277.5 4V140C277.5 141.933 275.933 143.5 274 143.5H4C2.06701 143.5 0.5 141.933 0.5 140V4Z" stroke="#D8DEE9"/>
<path d="M19.7578 49.1953L22.0234 39.625H23.2891L23.5781 41.2188L21.1641 51H19.8047L19.7578 49.1953ZM18.5938 39.625L20.4688 49.1953L20.3125 51H18.7969L16.2734 39.625H18.5938ZM25.5703 49.1562L27.4219 39.625H29.7422L27.2266 51H25.7109L25.5703 49.1562ZM24 39.625L26.2812 49.2344L26.2188 51H24.8594L22.4297 41.2109L22.7422 39.625H24ZM35.7309 39.625V51H33.395V39.625H35.7309ZM39.2309 39.625V41.4609H29.9497V39.625H39.2309ZM40.0869 39.625H44.3291C45.1989 39.625 45.9463 39.7552 46.5713 40.0156C47.2015 40.276 47.6858 40.6615 48.0244 41.1719C48.3629 41.6823 48.5322 42.3099 48.5322 43.0547C48.5322 43.6641 48.428 44.1875 48.2197 44.625C48.0166 45.0573 47.7275 45.4193 47.3525 45.7109C46.9827 45.9974 46.5478 46.2266 46.0478 46.3984L45.3056 46.7891H41.6181L41.6025 44.9609H44.3447C44.7561 44.9609 45.0973 44.888 45.3681 44.7422C45.639 44.5964 45.8421 44.3932 45.9775 44.1328C46.1181 43.8724 46.1884 43.5703 46.1884 43.2266C46.1884 42.862 46.1207 42.5469 45.9853 42.2812C45.8499 42.0156 45.6442 41.8125 45.3681 41.6719C45.0921 41.5312 44.7457 41.4609 44.3291 41.4609H42.4306V51H40.0869V39.625ZM46.4463 51L43.8525 45.9297L46.3291 45.9141L48.9541 50.8906V51H46.4463ZM54.1538 45.2344V47H49.7397V45.2344H54.1538ZM60.1425 46.0078H57.2206L57.205 44.3984H59.6581C60.0904 44.3984 60.4446 44.3438 60.7206 44.2344C60.9967 44.1198 61.2024 43.9557 61.3378 43.7422C61.4784 43.5234 61.5488 43.2578 61.5488 42.9453C61.5488 42.5911 61.481 42.3047 61.3456 42.0859C61.2154 41.8672 61.0097 41.7083 60.7284 41.6094C60.4524 41.5104 60.0956 41.4609 59.6581 41.4609H58.0331V51H55.6894V39.625H59.6581C60.3196 39.625 60.9107 39.6875 61.4316 39.8125C61.9576 39.9375 62.4029 40.1276 62.7675 40.3828C63.1321 40.638 63.4107 40.9609 63.6034 41.3516C63.7961 41.737 63.8925 42.1953 63.8925 42.7266C63.8925 43.1953 63.7857 43.6276 63.5722 44.0234C63.3639 44.4193 63.0331 44.7422 62.58 44.9922C62.1321 45.2422 61.5461 45.3802 60.8222 45.4062L60.1425 46.0078ZM60.0409 51H56.58L57.4941 49.1719H60.0409C60.4524 49.1719 60.7883 49.1068 61.0488 48.9766C61.3092 48.8411 61.5019 48.6589 61.6269 48.4297C61.7519 48.2005 61.8144 47.9375 61.8144 47.6406C61.8144 47.3073 61.7571 47.0182 61.6425 46.7734C61.5331 46.5286 61.356 46.3411 61.1113 46.2109C60.8665 46.0755 60.5435 46.0078 60.1425 46.0078H57.8847L57.9003 44.3984H60.7128L61.2519 45.0312C61.9446 45.0208 62.5019 45.1432 62.9238 45.3984C63.3508 45.6484 63.6607 45.974 63.8534 46.375C64.0514 46.776 64.1503 47.2057 64.1503 47.6641C64.1503 48.3932 63.9915 49.0078 63.6738 49.5078C63.356 50.0026 62.8899 50.375 62.2753 50.625C61.6659 50.875 60.9211 51 60.0409 51ZM64.9281 46.8594V46.6953C64.9281 46.0755 65.0167 45.5052 65.1937 44.9844C65.3708 44.4583 65.6286 44.0026 65.9672 43.6172C66.3057 43.2318 66.7224 42.9323 67.2172 42.7188C67.712 42.5 68.2797 42.3906 68.9203 42.3906C69.5609 42.3906 70.1312 42.5 70.6312 42.7188C71.1312 42.9323 71.5505 43.2318 71.8891 43.6172C72.2328 44.0026 72.4932 44.4583 72.6703 44.9844C72.8474 45.5052 72.9359 46.0755 72.9359 46.6953V46.8594C72.9359 47.474 72.8474 48.0443 72.6703 48.5703C72.4932 49.0911 72.2328 49.5469 71.8891 49.9375C71.5505 50.3229 71.1339 50.6224 70.6391 50.8359C70.1443 51.0495 69.5766 51.1562 68.9359 51.1562C68.2953 51.1562 67.725 51.0495 67.225 50.8359C66.7302 50.6224 66.3109 50.3229 65.9672 49.9375C65.6286 49.5469 65.3708 49.0911 65.1937 48.5703C65.0167 48.0443 64.9281 47.474 64.9281 46.8594ZM67.1781 46.6953V46.8594C67.1781 47.2135 67.2094 47.5443 67.2719 47.8516C67.3344 48.1589 67.4333 48.4297 67.5687 48.6641C67.7094 48.8932 67.8917 49.0729 68.1156 49.2031C68.3396 49.3333 68.613 49.3984 68.9359 49.3984C69.2484 49.3984 69.5167 49.3333 69.7406 49.2031C69.9646 49.0729 70.1443 48.8932 70.2797 48.6641C70.4151 48.4297 70.5141 48.1589 70.5766 47.8516C70.6443 47.5443 70.6781 47.2135 70.6781 46.8594V46.6953C70.6781 46.3516 70.6443 46.0286 70.5766 45.7266C70.5141 45.4193 70.4125 45.1484 70.2719 44.9141C70.1365 44.6745 69.9568 44.487 69.7328 44.3516C69.5089 44.2161 69.238 44.1484 68.9203 44.1484C68.6026 44.1484 68.3318 44.2161 68.1078 44.3516C67.8891 44.487 67.7094 44.6745 67.5687 44.9141C67.4333 45.1484 67.3344 45.4193 67.2719 45.7266C67.2094 46.0286 67.1781 46.3516 67.1781 46.6953ZM75.4794 42.5469L76.8778 45.1172L78.3153 42.5469H80.7137L78.3231 46.6797L80.8231 51H78.4169L76.8934 48.2812L75.37 51H72.9637L75.4637 46.6797L73.0731 42.5469H75.4794ZM87.4647 39.625V51H85.1288V39.625H87.4647ZM91.2425 44.3516V51H88.9925V42.5469H91.1019L91.2425 44.3516ZM90.9144 46.4766H90.305C90.305 45.8516 90.3857 45.2891 90.5472 44.7891C90.7086 44.2839 90.9352 43.8542 91.2269 43.5C91.5185 43.1406 91.8649 42.8672 92.2659 42.6797C92.6722 42.487 93.1253 42.3906 93.6253 42.3906C94.0211 42.3906 94.3831 42.4479 94.7113 42.5625C95.0394 42.6771 95.3206 42.8594 95.555 43.1094C95.7946 43.3594 95.9769 43.6901 96.1019 44.1016C96.2321 44.513 96.2972 45.0156 96.2972 45.6094V51H94.0316V45.6016C94.0316 45.2266 93.9795 44.9349 93.8753 44.7266C93.7711 44.5182 93.6175 44.3724 93.4144 44.2891C93.2165 44.2005 92.9717 44.1562 92.68 44.1562C92.3779 44.1562 92.1149 44.2161 91.8909 44.3359C91.6722 44.4557 91.4899 44.6224 91.3441 44.8359C91.2034 45.0443 91.0967 45.2891 91.0238 45.5703C90.9508 45.8516 90.9144 46.1536 90.9144 46.4766ZM99.9031 39V51H97.6453V39H99.9031ZM105.173 51.1562C104.517 51.1562 103.928 51.0521 103.408 50.8438C102.887 50.6302 102.444 50.3359 102.079 49.9609C101.72 49.5859 101.444 49.151 101.251 48.6562C101.059 48.1562 100.962 47.625 100.962 47.0625V46.75C100.962 46.1094 101.053 45.5234 101.236 44.9922C101.418 44.4609 101.678 44 102.017 43.6094C102.361 43.2188 102.777 42.9193 103.267 42.7109C103.756 42.4974 104.309 42.3906 104.923 42.3906C105.522 42.3906 106.053 42.4896 106.517 42.6875C106.98 42.8854 107.368 43.1667 107.681 43.5312C107.999 43.8958 108.238 44.3333 108.4 44.8438C108.561 45.349 108.642 45.9115 108.642 46.5312V47.4688H101.923V45.9688H106.431V45.7969C106.431 45.4844 106.374 45.2057 106.259 44.9609C106.15 44.7109 105.983 44.513 105.759 44.3672C105.535 44.2214 105.249 44.1484 104.9 44.1484C104.603 44.1484 104.348 44.2135 104.134 44.3438C103.921 44.474 103.746 44.6562 103.611 44.8906C103.48 45.125 103.381 45.401 103.314 45.7188C103.251 46.0312 103.22 46.375 103.22 46.75V47.0625C103.22 47.401 103.267 47.7135 103.361 48C103.46 48.2865 103.598 48.5339 103.775 48.7422C103.957 48.9505 104.176 49.112 104.431 49.2266C104.691 49.3411 104.986 49.3984 105.314 49.3984C105.72 49.3984 106.098 49.3203 106.447 49.1641C106.801 49.0026 107.105 48.7604 107.361 48.4375L108.454 49.625C108.277 49.8802 108.035 50.125 107.728 50.3594C107.426 50.5938 107.061 50.7865 106.634 50.9375C106.207 51.0833 105.72 51.1562 105.173 51.1562ZM113.584 42.5469V44.1406H108.662V42.5469H113.584ZM109.881 40.4609H112.131V48.4531C112.131 48.6979 112.162 48.8854 112.224 49.0156C112.292 49.1458 112.391 49.237 112.521 49.2891C112.651 49.3359 112.816 49.3594 113.013 49.3594C113.154 49.3594 113.279 49.3542 113.388 49.3438C113.503 49.3281 113.599 49.3125 113.677 49.2969L113.685 50.9531C113.493 51.0156 113.284 51.0651 113.06 51.1016C112.836 51.138 112.589 51.1562 112.318 51.1562C111.823 51.1562 111.391 51.0755 111.021 50.9141C110.657 50.7474 110.375 50.4818 110.177 50.1172C109.98 49.7526 109.881 49.2734 109.881 48.6797V40.4609Z" fill="#242424"/>
<path d="M24.748 82.1348H25.1582V84.3809H24.9922C24.25 84.3809 23.5892 84.4915 23.0098 84.7129C22.4303 84.9342 21.9388 85.25 21.5352 85.6602C21.138 86.0638 20.832 86.5521 20.6172 87.125C20.4089 87.6979 20.3047 88.3392 20.3047 89.0488V91.4121C20.3047 91.9199 20.3535 92.3691 20.4512 92.7598C20.5553 93.1439 20.7018 93.4661 20.8906 93.7266C21.0859 93.9805 21.3138 94.1725 21.5742 94.3027C21.8346 94.4264 22.1276 94.4883 22.4531 94.4883C22.7591 94.4883 23.0358 94.4232 23.2832 94.293C23.5371 94.1628 23.752 93.9805 23.9277 93.7461C24.11 93.5052 24.2467 93.2253 24.3379 92.9062C24.4355 92.5807 24.4844 92.2259 24.4844 91.8418C24.4844 91.4577 24.4355 91.1029 24.3379 90.7773C24.2467 90.4518 24.11 90.1719 23.9277 89.9375C23.7454 89.6966 23.5241 89.5111 23.2637 89.3809C23.0033 89.2507 22.7103 89.1855 22.3848 89.1855C21.9421 89.1855 21.5514 89.2897 21.2129 89.498C20.8809 89.6999 20.6204 89.9603 20.4316 90.2793C20.2428 90.5983 20.1419 90.9336 20.1289 91.2852L19.2793 90.7383C19.2988 90.237 19.403 89.7617 19.5918 89.3125C19.7871 88.8633 20.054 88.4661 20.3926 88.1211C20.7376 87.7695 21.151 87.4961 21.6328 87.3008C22.1146 87.099 22.6582 86.998 23.2637 86.998C23.9277 86.998 24.5104 87.125 25.0117 87.3789C25.5195 87.6328 25.9427 87.9811 26.2812 88.4238C26.6198 88.8665 26.8737 89.3776 27.043 89.957C27.2122 90.5365 27.2969 91.1549 27.2969 91.8125C27.2969 92.5026 27.1829 93.1439 26.9551 93.7363C26.7337 94.3288 26.4115 94.8464 25.9883 95.2891C25.5716 95.7318 25.0703 96.0768 24.4844 96.3242C23.8984 96.5716 23.2409 96.6953 22.5117 96.6953C21.7565 96.6953 21.0697 96.5586 20.4512 96.2852C19.8392 96.0052 19.3118 95.6146 18.8691 95.1133C18.4264 94.612 18.0846 94.0163 17.8438 93.3262C17.6094 92.6361 17.4922 91.8809 17.4922 91.0605V89.9668C17.4922 88.821 17.6582 87.7728 17.9902 86.8223C18.3288 85.8652 18.8138 85.0384 19.4453 84.3418C20.0768 83.6387 20.8385 83.0951 21.7305 82.7109C22.6224 82.3268 23.6283 82.1348 24.748 82.1348Z" fill="#0476CD"/>
<path d="M43.312 81.284H44.656V89.044H43.312V81.284ZM35.328 89.764H36.64V91.524H43.344V89.764H44.656V95.556H35.328V89.764ZM36.64 92.58V94.484H43.344V92.58H36.64ZM36.896 81.972C39.088 81.972 40.656 83.332 40.656 85.3C40.656 87.284 39.088 88.644 36.896 88.644C34.704 88.644 33.12 87.284 33.12 85.3C33.12 83.332 34.704 81.972 36.896 81.972ZM36.896 83.076C35.456 83.076 34.416 83.988 34.416 85.3C34.416 86.612 35.456 87.524 36.896 87.524C38.336 87.524 39.376 86.612 39.376 85.3C39.376 83.988 38.336 83.076 36.896 83.076Z" fill="#242424"/>
<path d="M79.748 82.1348H80.1582V84.3809H79.9922C79.25 84.3809 78.5892 84.4915 78.0098 84.7129C77.4303 84.9342 76.9388 85.25 76.5352 85.6602C76.138 86.0638 75.832 86.5521 75.6172 87.125C75.4089 87.6979 75.3047 88.3392 75.3047 89.0488V91.4121C75.3047 91.9199 75.3535 92.3691 75.4512 92.7598C75.5553 93.1439 75.7018 93.4661 75.8906 93.7266C76.0859 93.9805 76.3138 94.1725 76.5742 94.3027C76.8346 94.4264 77.1276 94.4883 77.4531 94.4883C77.7591 94.4883 78.0358 94.4232 78.2832 94.293C78.5371 94.1628 78.752 93.9805 78.9277 93.7461C79.11 93.5052 79.2467 93.2253 79.3379 92.9062C79.4355 92.5807 79.4844 92.2259 79.4844 91.8418C79.4844 91.4577 79.4355 91.1029 79.3379 90.7773C79.2467 90.4518 79.11 90.1719 78.9277 89.9375C78.7454 89.6966 78.5241 89.5111 78.2637 89.3809C78.0033 89.2507 77.7103 89.1855 77.3848 89.1855C76.9421 89.1855 76.5514 89.2897 76.2129 89.498C75.8809 89.6999 75.6204 89.9603 75.4316 90.2793C75.2428 90.5983 75.1419 90.9336 75.1289 91.2852L74.2793 90.7383C74.2988 90.237 74.403 89.7617 74.5918 89.3125C74.7871 88.8633 75.054 88.4661 75.3926 88.1211C75.7376 87.7695 76.151 87.4961 76.6328 87.3008C77.1146 87.099 77.6582 86.998 78.2637 86.998C78.9277 86.998 79.5104 87.125 80.0117 87.3789C80.5195 87.6328 80.9427 87.9811 81.2812 88.4238C81.6198 88.8665 81.8737 89.3776 82.043 89.957C82.2122 90.5365 82.2969 91.1549 82.2969 91.8125C82.2969 92.5026 82.1829 93.1439 81.9551 93.7363C81.7337 94.3288 81.4115 94.8464 80.9883 95.2891C80.5716 95.7318 80.0703 96.0768 79.4844 96.3242C78.8984 96.5716 78.2409 96.6953 77.5117 96.6953C76.7565 96.6953 76.0697 96.5586 75.4512 96.2852C74.8392 96.0052 74.3118 95.6146 73.8691 95.1133C73.4264 94.612 73.0846 94.0163 72.8438 93.3262C72.6094 92.6361 72.4922 91.8809 72.4922 91.0605V89.9668C72.4922 88.821 72.6582 87.7728 72.9902 86.8223C73.3288 85.8652 73.8138 85.0384 74.4453 84.3418C75.0768 83.6387 75.8385 83.0951 76.7305 82.7109C77.6224 82.3268 78.6283 82.1348 79.748 82.1348Z" fill="#767676"/>
<path d="M93.656 88.484H94.984V90.676H93.656V88.484ZM87.8 87.7H100.856V88.724H87.8V87.7ZM93.672 81.188H94.984V82.948H93.672V81.188ZM93.608 83.076H94.776V83.3C94.776 85.572 92.072 86.788 88.872 87.06L88.488 86.036C91.336 85.86 93.608 84.852 93.608 83.3V83.076ZM93.88 83.076H95.048V83.3C95.048 84.852 97.32 85.86 100.152 86.036L99.768 87.06C96.568 86.788 93.88 85.572 93.88 83.3V83.076ZM89.128 82.548H99.528V83.556H89.128V82.548ZM89.368 90.036H99.192V93.22H90.712V94.964H89.4V92.276H97.88V91.044H89.368V90.036ZM89.4 94.58H99.624V95.588H89.4V94.58Z" fill="#242424"/>
<path d="M166.5 72C166.5 45.7665 187.766 24.5 214 24.5C240.234 24.5 261.5 45.7665 261.5 72C261.5 98.2335 240.234 119.5 214 119.5C187.766 119.5 166.5 98.2335 166.5 72Z" fill="#F6F7F9"/>
<path d="M166.5 72C166.5 45.7665 187.766 24.5 214 24.5C240.234 24.5 261.5 45.7665 261.5 72C261.5 98.2335 240.234 119.5 214 119.5C187.766 119.5 166.5 98.2335 166.5 72Z" stroke="#ECEEF3"/>
<path d="M221.375 57.125V61.0625C221.375 62.7708 221.193 64.2448 220.828 65.4844C220.464 66.7135 219.938 67.724 219.25 68.5156C218.573 69.2969 217.766 69.875 216.828 70.25C215.891 70.625 214.849 70.8125 213.703 70.8125C212.786 70.8125 211.932 70.6979 211.141 70.4688C210.349 70.2292 209.635 69.8594 209 69.3594C208.375 68.8594 207.833 68.2292 207.375 67.4688C206.927 66.6979 206.583 65.7812 206.344 64.7188C206.104 63.6562 205.984 62.4375 205.984 61.0625V57.125C205.984 55.4167 206.167 53.9531 206.531 52.7344C206.906 51.5052 207.432 50.5 208.109 49.7188C208.797 48.9375 209.609 48.3646 210.547 48C211.484 47.625 212.526 47.4375 213.672 47.4375C214.589 47.4375 215.438 47.5573 216.219 47.7969C217.01 48.026 217.724 48.3854 218.359 48.875C218.995 49.3646 219.536 49.9948 219.984 50.7656C220.432 51.526 220.776 52.4375 221.016 53.5C221.255 54.5521 221.375 55.7604 221.375 57.125ZM216.859 61.6562V56.5156C216.859 55.6927 216.812 54.974 216.719 54.3594C216.635 53.7448 216.505 53.224 216.328 52.7969C216.151 52.3594 215.932 52.0052 215.672 51.7344C215.411 51.4635 215.115 51.2656 214.781 51.1406C214.448 51.0156 214.078 50.9531 213.672 50.9531C213.161 50.9531 212.708 51.0521 212.312 51.25C211.927 51.4479 211.599 51.7656 211.328 52.2031C211.057 52.6302 210.849 53.2031 210.703 53.9219C210.568 54.6302 210.5 55.4948 210.5 56.5156V61.6562C210.5 62.4792 210.542 63.2031 210.625 63.8281C210.719 64.4531 210.854 64.9896 211.031 65.4375C211.219 65.875 211.438 66.2344 211.688 66.5156C211.948 66.7865 212.245 66.9844 212.578 67.1094C212.922 67.2344 213.297 67.2969 213.703 67.2969C214.203 67.2969 214.646 67.1979 215.031 67C215.427 66.7917 215.76 66.4688 216.031 66.0312C216.312 65.5833 216.521 65 216.656 64.2812C216.792 63.5625 216.859 62.6875 216.859 61.6562Z" fill="#0476CD"/>
<path d="M196.816 91.012L195.822 92.426C194.45 91.964 193.498 91.068 192.938 89.948C192.364 91.208 191.356 92.23 189.858 92.734L188.92 91.278C191.048 90.578 191.958 88.87 191.958 87.246V87.232H189.438V85.762H196.368V87.232H193.848V87.246C193.848 88.786 194.73 90.34 196.816 91.012ZM192.784 93.35V96.01H199.714V97.48H190.936V93.35H192.784ZM199.252 88.562H200.96V90.074H199.252V94.26H197.404V84.81H199.252V88.562ZM208.477 91.446H210.675V88.926H208.435C208.519 89.346 208.561 89.808 208.561 90.298C208.561 90.704 208.533 91.096 208.477 91.446ZM205.229 93.238C206.181 93.238 206.825 92.216 206.825 90.298C206.825 88.394 206.181 87.372 205.229 87.372C204.291 87.372 203.647 88.394 203.647 90.298C203.647 92.216 204.291 93.238 205.229 93.238ZM210.675 84.796H212.523V97.732H210.675V92.944H208.043C207.469 94.204 206.475 94.932 205.229 94.918C203.311 94.918 201.897 93.14 201.897 90.298C201.897 87.47 203.311 85.706 205.229 85.706C206.391 85.706 207.357 86.336 207.931 87.442H210.675V84.796ZM225.01 84.824V94.078H223.148V84.824H225.01ZM216.288 88.912C216.288 89.948 217.044 90.578 217.996 90.578C218.962 90.578 219.69 89.948 219.69 88.912C219.69 87.848 218.962 87.232 217.996 87.232C217.044 87.232 216.288 87.848 216.288 88.912ZM221.496 88.912C221.496 90.788 219.97 92.174 217.996 92.174C216.022 92.174 214.482 90.788 214.482 88.912C214.482 87.008 216.022 85.636 217.996 85.636C219.97 85.636 221.496 87.008 221.496 88.912ZM218.276 96.01H225.332V97.48H216.428V93.168H218.276V96.01ZM233.479 92.3H235.901V84.81H237.749V94.582H235.901V93.56H233.479V92.3ZM231.001 86.588C230.133 86.588 229.531 86.924 229.531 87.554C229.531 88.184 230.133 88.506 231.001 88.506C231.855 88.506 232.457 88.184 232.457 87.554C232.457 86.924 231.855 86.588 231.001 86.588ZM231.001 89.85C229.111 89.85 227.795 88.926 227.795 87.554C227.795 86.182 229.111 85.244 231.001 85.244C232.877 85.244 234.207 86.182 234.207 87.554C234.207 88.926 232.877 89.85 231.001 89.85ZM230.315 96.01H238.029V97.48H228.467V93.644H230.259V91.922C229.125 91.978 228.047 91.992 227.081 91.992L226.843 90.522C229.195 90.508 232.331 90.48 235.047 90.13L235.173 91.446C234.165 91.614 233.129 91.726 232.093 91.81V94.246H230.315V96.01Z" fill="black" fill-opacity="0.6"/>
</svg>
