<svg width="278" height="144" viewBox="0 0 278 144" fill="none" xmlns="http://www.w3.org/2000/svg">
<path d="M0.5 4C0.5 2.067 2.067 0.5 4 0.5H274C275.933 0.5 277.5 2.067 277.5 4V140C277.5 141.933 275.933 143.5 274 143.5H4C2.06701 143.5 0.5 141.933 0.5 140V4Z" fill="white"/>
<path d="M0.5 4C0.5 2.067 2.067 0.5 4 0.5H274C275.933 0.5 277.5 2.067 277.5 4V140C277.5 141.933 275.933 143.5 274 143.5H4C2.06701 143.5 0.5 141.933 0.5 140V4Z" fill="white"/>
<path d="M0.5 4C0.5 2.067 2.067 0.5 4 0.5H274C275.933 0.5 277.5 2.067 277.5 4V140C277.5 141.933 275.933 143.5 274 143.5H4C2.06701 143.5 0.5 141.933 0.5 140V4Z" stroke="#D8DEE9"/>
<path d="M0.5 4C0.5 2.067 2.067 0.5 4 0.5H274C275.933 0.5 277.5 2.067 277.5 4V140C277.5 141.933 275.933 143.5 274 143.5H4C2.06701 143.5 0.5 141.933 0.5 140V4Z" stroke="#FAB832"/>
<path d="M0.5 4C0.5 2.067 2.067 0.5 4 0.5H274C275.933 0.5 277.5 2.067 277.5 4V140C277.5 141.933 275.933 143.5 274 143.5H4C2.06701 143.5 0.5 141.933 0.5 140V4Z" stroke="#D8DEE9"/>
<path d="M20.5078 51H18.0312L18.0469 49.1719H20.5078C21.1224 49.1719 21.6406 49.0339 22.0625 48.7578C22.4844 48.4766 22.8021 48.0677 23.0156 47.5312C23.2344 46.9948 23.3438 46.3464 23.3438 45.5859V45.0312C23.3438 44.4479 23.2812 43.9349 23.1562 43.4922C23.0365 43.0495 22.8568 42.6771 22.6172 42.375C22.3776 42.0729 22.0833 41.8464 21.7344 41.6953C21.3854 41.5391 20.9844 41.4609 20.5312 41.4609H17.9844V39.625H20.5312C21.2917 39.625 21.987 39.7552 22.6172 40.0156C23.2526 40.2708 23.8021 40.638 24.2656 41.1172C24.7292 41.5964 25.0859 42.1693 25.3359 42.8359C25.5911 43.4974 25.7188 44.2344 25.7188 45.0469V45.5859C25.7188 46.3932 25.5911 47.1302 25.3359 47.7969C25.0859 48.4635 24.7292 49.0365 24.2656 49.5156C23.8073 49.9896 23.2578 50.3568 22.6172 50.6172C21.9818 50.8724 21.2786 51 20.5078 51ZM19.3594 39.625V51H17.0156V39.625H19.3594ZM30.6919 51.1562C30.0356 51.1562 29.4471 51.0521 28.9263 50.8438C28.4054 50.6302 27.9627 50.3359 27.5981 49.9609C27.2388 49.5859 26.9627 49.151 26.77 48.6562C26.5773 48.1562 26.4809 47.625 26.4809 47.0625V46.75C26.4809 46.1094 26.5721 45.5234 26.7544 44.9922C26.9367 44.4609 27.1971 44 27.5356 43.6094C27.8794 43.2188 28.296 42.9193 28.7856 42.7109C29.2752 42.4974 29.8273 42.3906 30.4419 42.3906C31.0408 42.3906 31.5721 42.4896 32.0356 42.6875C32.4992 42.8854 32.8872 43.1667 33.1997 43.5312C33.5174 43.8958 33.757 44.3333 33.9184 44.8438C34.0799 45.349 34.1606 45.9115 34.1606 46.5312V47.4688H27.4419V45.9688H31.9497V45.7969C31.9497 45.4844 31.8924 45.2057 31.7778 44.9609C31.6684 44.7109 31.5018 44.513 31.2778 44.3672C31.0539 44.2214 30.7674 44.1484 30.4184 44.1484C30.1216 44.1484 29.8664 44.2135 29.6528 44.3438C29.4393 44.474 29.2648 44.6562 29.1294 44.8906C28.9992 45.125 28.9002 45.401 28.8325 45.7188C28.77 46.0312 28.7388 46.375 28.7388 46.75V47.0625C28.7388 47.401 28.7856 47.7135 28.8794 48C28.9783 48.2865 29.1164 48.5339 29.2934 48.7422C29.4757 48.9505 29.6945 49.112 29.9497 49.2266C30.2101 49.3411 30.5044 49.3984 30.8325 49.3984C31.2388 49.3984 31.6164 49.3203 31.9653 49.1641C32.3195 49.0026 32.6242 48.7604 32.8794 48.4375L33.9731 49.625C33.796 49.8802 33.5539 50.125 33.2466 50.3594C32.9445 50.5938 32.5799 50.7865 32.1528 50.9375C31.7257 51.0833 31.2388 51.1562 30.6919 51.1562ZM34.9619 39H37.2119V49.0625L36.9853 51H34.9619V39ZM42.5634 46.6875V46.8516C42.5634 47.4818 42.4957 48.0599 42.3603 48.5859C42.2301 49.112 42.027 49.5677 41.7509 49.9531C41.4749 50.3333 41.1311 50.6302 40.7197 50.8438C40.3134 51.0521 39.8343 51.1562 39.2822 51.1562C38.7666 51.1562 38.3186 51.0521 37.9384 50.8438C37.5634 50.6354 37.2483 50.3411 36.9931 49.9609C36.7379 49.5807 36.5322 49.1354 36.3759 48.625C36.2197 48.1146 36.1025 47.5573 36.0244 46.9531V46.5938C36.1025 45.9896 36.2197 45.4323 36.3759 44.9219C36.5322 44.4115 36.7379 43.9661 36.9931 43.5859C37.2483 43.2057 37.5634 42.9115 37.9384 42.7031C38.3134 42.4948 38.7561 42.3906 39.2666 42.3906C39.8239 42.3906 40.3082 42.4974 40.7197 42.7109C41.1364 42.9193 41.4801 43.2161 41.7509 43.6016C42.027 43.9818 42.2301 44.4349 42.3603 44.9609C42.4957 45.4818 42.5634 46.0573 42.5634 46.6875ZM40.3134 46.8516V46.6875C40.3134 46.3438 40.2874 46.0208 40.2353 45.7188C40.1884 45.4115 40.1051 45.1432 39.9853 44.9141C39.8655 44.6797 39.7015 44.4948 39.4931 44.3594C39.29 44.224 39.027 44.1562 38.7041 44.1562C38.3968 44.1562 38.1364 44.2083 37.9228 44.3125C37.7093 44.4167 37.5322 44.5625 37.3916 44.75C37.2561 44.9375 37.1546 45.1615 37.0869 45.4219C37.0192 45.6771 36.9775 45.9583 36.9619 46.2656V47.2891C36.9775 47.7005 37.0452 48.0651 37.165 48.3828C37.29 48.6953 37.4775 48.9427 37.7275 49.125C37.9827 49.3021 38.3134 49.3906 38.7197 49.3906C39.0374 49.3906 39.3004 49.3281 39.5088 49.2031C39.7171 49.0781 39.8785 48.901 39.9931 48.6719C40.1129 48.4427 40.1963 48.1745 40.2431 47.8672C40.29 47.5547 40.3134 47.2161 40.3134 46.8516ZM45.7319 44.3906V51H43.4819V42.5469H45.5991L45.7319 44.3906ZM48.2787 42.4922L48.2397 44.5781C48.1303 44.5625 47.9975 44.5495 47.8412 44.5391C47.6902 44.5234 47.5522 44.5156 47.4272 44.5156C47.1095 44.5156 46.8334 44.5573 46.5991 44.6406C46.3699 44.7188 46.1772 44.8359 46.0209 44.9922C45.8699 45.1484 45.7553 45.3385 45.6772 45.5625C45.6043 45.7865 45.5626 46.0417 45.5522 46.3281L45.0991 46.1875C45.0991 45.6406 45.1537 45.138 45.2631 44.6797C45.3725 44.2161 45.5314 43.8125 45.7397 43.4688C45.9532 43.125 46.2136 42.8594 46.5209 42.6719C46.8282 42.4844 47.1798 42.3906 47.5756 42.3906C47.7006 42.3906 47.8282 42.401 47.9584 42.4219C48.0886 42.4375 48.1954 42.4609 48.2787 42.4922ZM51.2362 42.5469V51H48.9784V42.5469H51.2362ZM48.8378 40.3438C48.8378 40.0156 48.9524 39.7448 49.1816 39.5312C49.4107 39.3177 49.718 39.2109 50.1034 39.2109C50.4836 39.2109 50.7883 39.3177 51.0175 39.5312C51.2519 39.7448 51.3691 40.0156 51.3691 40.3438C51.3691 40.6719 51.2519 40.9427 51.0175 41.1562C50.7883 41.3698 50.4836 41.4766 50.1034 41.4766C49.718 41.4766 49.4107 41.3698 49.1816 41.1562C48.9524 40.9427 48.8378 40.6719 48.8378 40.3438ZM57.1859 48.6641C57.1859 48.5026 57.1391 48.3568 57.0453 48.2266C56.9516 48.0964 56.7771 47.9766 56.5219 47.8672C56.2719 47.7526 55.9099 47.6484 55.4359 47.5547C55.0089 47.4609 54.6104 47.3438 54.2406 47.2031C53.876 47.0573 53.5583 46.8828 53.2875 46.6797C53.0219 46.4766 52.8135 46.237 52.6625 45.9609C52.5115 45.6797 52.4359 45.3594 52.4359 45C52.4359 44.6458 52.5115 44.3125 52.6625 44C52.8187 43.6875 53.0401 43.4115 53.3266 43.1719C53.6182 42.9271 53.9724 42.737 54.3891 42.6016C54.8109 42.4609 55.2849 42.3906 55.8109 42.3906C56.5453 42.3906 57.1755 42.5078 57.7016 42.7422C58.2328 42.9766 58.6391 43.2995 58.9203 43.7109C59.2068 44.1172 59.35 44.5807 59.35 45.1016H57.1C57.1 44.8828 57.0531 44.6875 56.9594 44.5156C56.8708 44.3385 56.7302 44.2005 56.5375 44.1016C56.35 43.9974 56.1052 43.9453 55.8031 43.9453C55.5531 43.9453 55.337 43.9896 55.1547 44.0781C54.9724 44.1615 54.8318 44.276 54.7328 44.4219C54.6391 44.5625 54.5922 44.7188 54.5922 44.8906C54.5922 45.0208 54.6182 45.138 54.6703 45.2422C54.7276 45.3411 54.8187 45.4323 54.9437 45.5156C55.0687 45.599 55.2302 45.6771 55.4281 45.75C55.6312 45.8177 55.8812 45.8802 56.1781 45.9375C56.7875 46.0625 57.3318 46.2266 57.8109 46.4297C58.2901 46.6276 58.6703 46.8984 58.9516 47.2422C59.2328 47.5807 59.3734 48.026 59.3734 48.5781C59.3734 48.9531 59.2901 49.2969 59.1234 49.6094C58.9568 49.9219 58.7172 50.1953 58.4047 50.4297C58.0922 50.6589 57.7172 50.8385 57.2797 50.9688C56.8474 51.0938 56.3604 51.1562 55.8187 51.1562C55.0323 51.1562 54.3656 51.0156 53.8187 50.7344C53.2771 50.4531 52.8656 50.0964 52.5844 49.6641C52.3083 49.2266 52.1703 48.7786 52.1703 48.3203H54.3031C54.3135 48.6276 54.3917 48.875 54.5375 49.0625C54.6885 49.25 54.8786 49.3854 55.1078 49.4688C55.3422 49.5521 55.5948 49.5938 55.8656 49.5938C56.1573 49.5938 56.3995 49.5547 56.5922 49.4766C56.7849 49.3932 56.9307 49.2839 57.0297 49.1484C57.1339 49.0078 57.1859 48.8464 57.1859 48.6641ZM66.3431 39.625V51H63.9994V39.625H66.3431ZM70.8744 44.4844V46.3125H65.7025V44.4844H70.8744ZM71.4212 39.625V41.4609H65.7025V39.625H71.4212ZM74.535 42.5469V51H72.2772V42.5469H74.535ZM72.1366 40.3438C72.1366 40.0156 72.2511 39.7448 72.4803 39.5312C72.7095 39.3177 73.0168 39.2109 73.4022 39.2109C73.7824 39.2109 74.0871 39.3177 74.3162 39.5312C74.5506 39.7448 74.6678 40.0156 74.6678 40.3438C74.6678 40.6719 74.5506 40.9427 74.3162 41.1562C74.0871 41.3698 73.7824 41.4766 73.4022 41.4766C73.0168 41.4766 72.7095 41.3698 72.4803 41.1562C72.2511 40.9427 72.1366 40.6719 72.1366 40.3438ZM78.2894 39V51H76.0316V39H78.2894ZM83.8094 42.5469V44.1406H78.8875V42.5469H83.8094ZM80.1063 40.4609H82.3563V48.4531C82.3563 48.6979 82.3875 48.8854 82.45 49.0156C82.5177 49.1458 82.6167 49.237 82.7469 49.2891C82.8771 49.3359 83.0411 49.3594 83.2391 49.3594C83.3797 49.3594 83.5047 49.3542 83.6141 49.3438C83.7286 49.3281 83.825 49.3125 83.9031 49.2969L83.9109 50.9531C83.7182 51.0156 83.5099 51.0651 83.2859 51.1016C83.062 51.138 82.8146 51.1562 82.5438 51.1562C82.049 51.1562 81.6167 51.0755 81.2469 50.9141C80.8823 50.7474 80.601 50.4818 80.4031 50.1172C80.2052 49.7526 80.1063 49.2734 80.1063 48.6797V40.4609ZM88.5013 51.1562C87.845 51.1562 87.2565 51.0521 86.7356 50.8438C86.2148 50.6302 85.7721 50.3359 85.4075 49.9609C85.0481 49.5859 84.7721 49.151 84.5794 48.6562C84.3867 48.1562 84.2903 47.625 84.2903 47.0625V46.75C84.2903 46.1094 84.3815 45.5234 84.5638 44.9922C84.746 44.4609 85.0065 44 85.345 43.6094C85.6888 43.2188 86.1054 42.9193 86.595 42.7109C87.0846 42.4974 87.6367 42.3906 88.2513 42.3906C88.8502 42.3906 89.3815 42.4896 89.845 42.6875C90.3085 42.8854 90.6966 43.1667 91.0091 43.5312C91.3268 43.8958 91.5664 44.3333 91.7278 44.8438C91.8893 45.349 91.97 45.9115 91.97 46.5312V47.4688H85.2513V45.9688H89.7591V45.7969C89.7591 45.4844 89.7018 45.2057 89.5872 44.9609C89.4778 44.7109 89.3111 44.513 89.0872 44.3672C88.8632 44.2214 88.5768 44.1484 88.2278 44.1484C87.9309 44.1484 87.6757 44.2135 87.4622 44.3438C87.2486 44.474 87.0742 44.6562 86.9388 44.8906C86.8085 45.125 86.7096 45.401 86.6419 45.7188C86.5794 46.0312 86.5481 46.375 86.5481 46.75V47.0625C86.5481 47.401 86.595 47.7135 86.6888 48C86.7877 48.2865 86.9257 48.5339 87.1028 48.7422C87.2851 48.9505 87.5039 49.112 87.7591 49.2266C88.0195 49.3411 88.3138 49.3984 88.6419 49.3984C89.0481 49.3984 89.4257 49.3203 89.7747 49.1641C90.1289 49.0026 90.4335 48.7604 90.6888 48.4375L91.7825 49.625C91.6054 49.8802 91.3632 50.125 91.0559 50.3594C90.7539 50.5938 90.3893 50.7865 89.9622 50.9375C89.5351 51.0833 89.0481 51.1562 88.5013 51.1562ZM95.0212 44.3906V51H92.7712V42.5469H94.8884L95.0212 44.3906ZM97.5681 42.4922L97.5291 44.5781C97.4197 44.5625 97.2869 44.5495 97.1306 44.5391C96.9796 44.5234 96.8416 44.5156 96.7166 44.5156C96.3989 44.5156 96.1228 44.5573 95.8884 44.6406C95.6593 44.7188 95.4666 44.8359 95.3103 44.9922C95.1593 45.1484 95.0447 45.3385 94.9666 45.5625C94.8936 45.7865 94.852 46.0417 94.8416 46.3281L94.3884 46.1875C94.3884 45.6406 94.4431 45.138 94.5525 44.6797C94.6619 44.2161 94.8207 43.8125 95.0291 43.4688C95.2426 43.125 95.503 42.8594 95.8103 42.6719C96.1176 42.4844 96.4692 42.3906 96.865 42.3906C96.99 42.3906 97.1176 42.401 97.2478 42.4219C97.378 42.4375 97.4848 42.4609 97.5681 42.4922ZM18.0859 58.625H20.0703L22.9922 66.9766L25.9141 58.625H27.8984L23.7891 70H22.1953L18.0859 58.625ZM17.0156 58.625H18.9922L19.3516 66.7656V70H17.0156V58.625ZM26.9922 58.625H28.9766V70H26.6328V66.7656L26.9922 58.625ZM34.9731 68.0938V64.3281C34.9731 64.0573 34.9289 63.8255 34.8403 63.6328C34.7518 63.4349 34.6138 63.2812 34.4263 63.1719C34.244 63.0625 34.007 63.0078 33.7153 63.0078C33.4653 63.0078 33.2492 63.0521 33.0669 63.1406C32.8846 63.224 32.744 63.3464 32.645 63.5078C32.546 63.6641 32.4966 63.849 32.4966 64.0625H30.2466C30.2466 63.7031 30.3299 63.362 30.4966 63.0391C30.6632 62.7161 30.9054 62.4323 31.2231 62.1875C31.5408 61.9375 31.9184 61.7422 32.3559 61.6016C32.7986 61.4609 33.2934 61.3906 33.8403 61.3906C34.4966 61.3906 35.0799 61.5 35.5903 61.7188C36.1007 61.9375 36.5018 62.2656 36.7934 62.7031C37.0903 63.1406 37.2388 63.6875 37.2388 64.3438V67.9609C37.2388 68.4245 37.2674 68.8047 37.3247 69.1016C37.382 69.3932 37.4653 69.6484 37.5747 69.8672V70H35.3013C35.1919 69.7708 35.1085 69.4844 35.0513 69.1406C34.9992 68.7917 34.9731 68.4427 34.9731 68.0938ZM35.27 64.8516L35.2856 66.125H34.0278C33.7309 66.125 33.4731 66.1589 33.2544 66.2266C33.0356 66.2943 32.8559 66.3906 32.7153 66.5156C32.5747 66.6354 32.4705 66.776 32.4028 66.9375C32.3403 67.099 32.3091 67.276 32.3091 67.4688C32.3091 67.6615 32.3533 67.8359 32.4419 67.9922C32.5304 68.1432 32.658 68.263 32.8247 68.3516C32.9914 68.4349 33.1867 68.4766 33.4106 68.4766C33.7492 68.4766 34.0434 68.4089 34.2934 68.2734C34.5434 68.138 34.7361 67.9714 34.8716 67.7734C35.0122 67.5755 35.0851 67.388 35.0903 67.2109L35.6841 68.1641C35.6007 68.3776 35.4861 68.599 35.3403 68.8281C35.1997 69.0573 35.02 69.2734 34.8013 69.4766C34.5825 69.6745 34.3195 69.8385 34.0122 69.9688C33.7049 70.0938 33.3403 70.1562 32.9184 70.1562C32.382 70.1562 31.895 70.0495 31.4575 69.8359C31.0252 69.6172 30.6815 69.3177 30.4263 68.9375C30.1763 68.5521 30.0513 68.1146 30.0513 67.625C30.0513 67.1823 30.1346 66.7891 30.3013 66.4453C30.4679 66.1016 30.7127 65.8125 31.0356 65.5781C31.3638 65.3385 31.7726 65.1589 32.2622 65.0391C32.7518 64.9141 33.3195 64.8516 33.9653 64.8516H35.27ZM40.6963 63.3516V70H38.4463V61.5469H40.5556L40.6963 63.3516ZM40.3681 65.4766H39.7588C39.7588 64.8516 39.8395 64.2891 40.0009 63.7891C40.1624 63.2839 40.389 62.8542 40.6806 62.5C40.9723 62.1406 41.3186 61.8672 41.7197 61.6797C42.1259 61.487 42.5791 61.3906 43.0791 61.3906C43.4749 61.3906 43.8369 61.4479 44.165 61.5625C44.4931 61.6771 44.7744 61.8594 45.0088 62.1094C45.2483 62.3594 45.4306 62.6901 45.5556 63.1016C45.6858 63.513 45.7509 64.0156 45.7509 64.6094V70H43.4853V64.6016C43.4853 64.2266 43.4332 63.9349 43.3291 63.7266C43.2249 63.5182 43.0713 63.3724 42.8681 63.2891C42.6702 63.2005 42.4254 63.1562 42.1338 63.1562C41.8317 63.1562 41.5686 63.2161 41.3447 63.3359C41.1259 63.4557 40.9436 63.6224 40.7978 63.8359C40.6572 64.0443 40.5504 64.2891 40.4775 64.5703C40.4046 64.8516 40.3681 65.1536 40.3681 65.4766ZM49.1772 58V70H46.9272V58H49.1772ZM48.8569 65.4766H48.2397C48.2449 64.888 48.323 64.3464 48.4741 63.8516C48.6251 63.3516 48.8412 62.9193 49.1225 62.5547C49.4037 62.1849 49.7397 61.8984 50.1303 61.6953C50.5261 61.4922 50.9636 61.3906 51.4428 61.3906C51.8595 61.3906 52.2371 61.4505 52.5756 61.5703C52.9194 61.6849 53.2136 61.8724 53.4584 62.1328C53.7084 62.388 53.9011 62.724 54.0366 63.1406C54.172 63.5573 54.2397 64.0625 54.2397 64.6562V70H51.9741V64.6406C51.9741 64.2656 51.9194 63.9714 51.81 63.7578C51.7058 63.5391 51.5522 63.3854 51.3491 63.2969C51.1511 63.2031 50.9064 63.1562 50.6147 63.1562C50.2918 63.1562 50.0157 63.2161 49.7866 63.3359C49.5626 63.4557 49.3829 63.6224 49.2475 63.8359C49.1121 64.0443 49.0131 64.2891 48.9506 64.5703C48.8881 64.8516 48.8569 65.1536 48.8569 65.4766ZM55.1113 65.8594V65.6953C55.1113 65.0755 55.1998 64.5052 55.3769 63.9844C55.554 63.4583 55.8118 63.0026 56.1503 62.6172C56.4889 62.2318 56.9055 61.9323 57.4003 61.7188C57.8951 61.5 58.4628 61.3906 59.1034 61.3906C59.7441 61.3906 60.3144 61.5 60.8144 61.7188C61.3144 61.9323 61.7336 62.2318 62.0722 62.6172C62.4159 63.0026 62.6764 63.4583 62.8534 63.9844C63.0305 64.5052 63.1191 65.0755 63.1191 65.6953V65.8594C63.1191 66.474 63.0305 67.0443 62.8534 67.5703C62.6764 68.0911 62.4159 68.5469 62.0722 68.9375C61.7336 69.3229 61.317 69.6224 60.8222 69.8359C60.3274 70.0495 59.7597 70.1562 59.1191 70.1562C58.4784 70.1562 57.9081 70.0495 57.4081 69.8359C56.9133 69.6224 56.4941 69.3229 56.1503 68.9375C55.8118 68.5469 55.554 68.0911 55.3769 67.5703C55.1998 67.0443 55.1113 66.474 55.1113 65.8594ZM57.3613 65.6953V65.8594C57.3613 66.2135 57.3925 66.5443 57.455 66.8516C57.5175 67.1589 57.6165 67.4297 57.7519 67.6641C57.8925 67.8932 58.0748 68.0729 58.2988 68.2031C58.5227 68.3333 58.7961 68.3984 59.1191 68.3984C59.4316 68.3984 59.6998 68.3333 59.9238 68.2031C60.1477 68.0729 60.3274 67.8932 60.4628 67.6641C60.5982 67.4297 60.6972 67.1589 60.7597 66.8516C60.8274 66.5443 60.8613 66.2135 60.8613 65.8594V65.6953C60.8613 65.3516 60.8274 65.0286 60.7597 64.7266C60.6972 64.4193 60.5956 64.1484 60.455 63.9141C60.3196 63.6745 60.1399 63.487 59.9159 63.3516C59.692 63.2161 59.4211 63.1484 59.1034 63.1484C58.7857 63.1484 58.5149 63.2161 58.2909 63.3516C58.0722 63.487 57.8925 63.6745 57.7519 63.9141C57.6165 64.1484 57.5175 64.4193 57.455 64.7266C57.3925 65.0286 57.3613 65.3516 57.3613 65.6953ZM66.3969 58V70H64.1391V58H66.3969ZM71.6669 70.1562C71.0106 70.1562 70.4221 70.0521 69.9012 69.8438C69.3804 69.6302 68.9377 69.3359 68.5731 68.9609C68.2137 68.5859 67.9377 68.151 67.745 67.6562C67.5523 67.1562 67.4559 66.625 67.4559 66.0625V65.75C67.4559 65.1094 67.5471 64.5234 67.7294 63.9922C67.9117 63.4609 68.1721 63 68.5106 62.6094C68.8544 62.2188 69.271 61.9193 69.7606 61.7109C70.2502 61.4974 70.8023 61.3906 71.4169 61.3906C72.0158 61.3906 72.5471 61.4896 73.0106 61.6875C73.4742 61.8854 73.8622 62.1667 74.1747 62.5312C74.4924 62.8958 74.732 63.3333 74.8934 63.8438C75.0549 64.349 75.1356 64.9115 75.1356 65.5312V66.4688H68.4169V64.9688H72.9247V64.7969C72.9247 64.4844 72.8674 64.2057 72.7528 63.9609C72.6434 63.7109 72.4768 63.513 72.2528 63.3672C72.0289 63.2214 71.7424 63.1484 71.3934 63.1484C71.0966 63.1484 70.8414 63.2135 70.6278 63.3438C70.4143 63.474 70.2398 63.6562 70.1044 63.8906C69.9742 64.125 69.8752 64.401 69.8075 64.7188C69.745 65.0312 69.7137 65.375 69.7137 65.75V66.0625C69.7137 66.401 69.7606 66.7135 69.8544 67C69.9533 67.2865 70.0914 67.5339 70.2684 67.7422C70.4507 67.9505 70.6695 68.112 70.9247 68.2266C71.1851 68.3411 71.4794 68.3984 71.8075 68.3984C72.2137 68.3984 72.5914 68.3203 72.9403 68.1641C73.2945 68.0026 73.5992 67.7604 73.8544 67.4375L74.9481 68.625C74.771 68.8802 74.5289 69.125 74.2216 69.3594C73.9195 69.5938 73.5549 69.7865 73.1278 69.9375C72.7007 70.0833 72.2137 70.1562 71.6669 70.1562Z" fill="#242424"/>
<path d="M27.0625 107.141V109.602C27.0625 110.669 26.9486 111.59 26.7207 112.365C26.4928 113.133 26.1641 113.765 25.7344 114.26C25.3112 114.748 24.8066 115.109 24.2207 115.344C23.6348 115.578 22.9837 115.695 22.2676 115.695C21.6947 115.695 21.1608 115.624 20.666 115.48C20.1712 115.331 19.7253 115.1 19.3281 114.787C18.9375 114.475 18.599 114.081 18.3125 113.605C18.0326 113.124 17.8177 112.551 17.668 111.887C17.5182 111.223 17.4434 110.461 17.4434 109.602V107.141C17.4434 106.073 17.5573 105.158 17.7852 104.396C18.0195 103.628 18.3483 103 18.7715 102.512C19.2012 102.023 19.709 101.665 20.2949 101.438C20.8809 101.203 21.5319 101.086 22.248 101.086C22.821 101.086 23.3516 101.161 23.8398 101.311C24.3346 101.454 24.7806 101.678 25.1777 101.984C25.5749 102.29 25.9134 102.684 26.1934 103.166C26.4733 103.641 26.6882 104.211 26.8379 104.875C26.9876 105.533 27.0625 106.288 27.0625 107.141ZM24.2402 109.973V106.76C24.2402 106.245 24.2109 105.796 24.1523 105.412C24.1003 105.028 24.0189 104.702 23.9082 104.436C23.7975 104.162 23.6608 103.941 23.498 103.771C23.3353 103.602 23.1497 103.479 22.9414 103.4C22.7331 103.322 22.502 103.283 22.248 103.283C21.929 103.283 21.6458 103.345 21.3984 103.469C21.1576 103.592 20.9525 103.791 20.7832 104.064C20.6139 104.331 20.4837 104.689 20.3926 105.139C20.3079 105.581 20.2656 106.122 20.2656 106.76V109.973C20.2656 110.487 20.2917 110.939 20.3438 111.33C20.4023 111.721 20.487 112.056 20.5977 112.336C20.7148 112.609 20.8516 112.834 21.0078 113.01C21.1706 113.179 21.3561 113.303 21.5645 113.381C21.7793 113.459 22.0137 113.498 22.2676 113.498C22.5801 113.498 22.8568 113.436 23.0977 113.312C23.3451 113.182 23.5534 112.98 23.7227 112.707C23.8984 112.427 24.0286 112.062 24.1133 111.613C24.1979 111.164 24.2402 110.617 24.2402 109.973Z" fill="#0476CD"/>
<path d="M43.312 100.284H44.656V108.044H43.312V100.284ZM35.328 108.764H36.64V110.524H43.344V108.764H44.656V114.556H35.328V108.764ZM36.64 111.58V113.484H43.344V111.58H36.64ZM36.896 100.972C39.088 100.972 40.656 102.332 40.656 104.3C40.656 106.284 39.088 107.644 36.896 107.644C34.704 107.644 33.12 106.284 33.12 104.3C33.12 102.332 34.704 100.972 36.896 100.972ZM36.896 102.076C35.456 102.076 34.416 102.988 34.416 104.3C34.416 105.612 35.456 106.524 36.896 106.524C38.336 106.524 39.376 105.612 39.376 104.3C39.376 102.988 38.336 102.076 36.896 102.076Z" fill="#242424"/>
<path d="M82.0625 107.141V109.602C82.0625 110.669 81.9486 111.59 81.7207 112.365C81.4928 113.133 81.1641 113.765 80.7344 114.26C80.3112 114.748 79.8066 115.109 79.2207 115.344C78.6348 115.578 77.9837 115.695 77.2676 115.695C76.6947 115.695 76.1608 115.624 75.666 115.48C75.1712 115.331 74.7253 115.1 74.3281 114.787C73.9375 114.475 73.599 114.081 73.3125 113.605C73.0326 113.124 72.8177 112.551 72.668 111.887C72.5182 111.223 72.4434 110.461 72.4434 109.602V107.141C72.4434 106.073 72.5573 105.158 72.7852 104.396C73.0195 103.628 73.3483 103 73.7715 102.512C74.2012 102.023 74.709 101.665 75.2949 101.438C75.8809 101.203 76.5319 101.086 77.248 101.086C77.821 101.086 78.3516 101.161 78.8398 101.311C79.3346 101.454 79.7806 101.678 80.1777 101.984C80.5749 102.29 80.9134 102.684 81.1934 103.166C81.4733 103.641 81.6882 104.211 81.8379 104.875C81.9876 105.533 82.0625 106.288 82.0625 107.141ZM79.2402 109.973V106.76C79.2402 106.245 79.2109 105.796 79.1523 105.412C79.1003 105.028 79.0189 104.702 78.9082 104.436C78.7975 104.162 78.6608 103.941 78.498 103.771C78.3353 103.602 78.1497 103.479 77.9414 103.4C77.7331 103.322 77.502 103.283 77.248 103.283C76.929 103.283 76.6458 103.345 76.3984 103.469C76.1576 103.592 75.9525 103.791 75.7832 104.064C75.6139 104.331 75.4837 104.689 75.3926 105.139C75.3079 105.581 75.2656 106.122 75.2656 106.76V109.973C75.2656 110.487 75.2917 110.939 75.3438 111.33C75.4023 111.721 75.487 112.056 75.5977 112.336C75.7148 112.609 75.8516 112.834 76.0078 113.01C76.1706 113.179 76.3561 113.303 76.5645 113.381C76.7793 113.459 77.0137 113.498 77.2676 113.498C77.5801 113.498 77.8568 113.436 78.0977 113.312C78.3451 113.182 78.5534 112.98 78.7227 112.707C78.8984 112.427 79.0286 112.062 79.1133 111.613C79.1979 111.164 79.2402 110.617 79.2402 109.973Z" fill="#767676"/>
<path d="M93.656 107.484H94.984V109.676H93.656V107.484ZM87.8 106.7H100.856V107.724H87.8V106.7ZM93.672 100.188H94.984V101.948H93.672V100.188ZM93.608 102.076H94.776V102.3C94.776 104.572 92.072 105.788 88.872 106.06L88.488 105.036C91.336 104.86 93.608 103.852 93.608 102.3V102.076ZM93.88 102.076H95.048V102.3C95.048 103.852 97.32 104.86 100.152 105.036L99.768 106.06C96.568 105.788 93.88 104.572 93.88 102.3V102.076ZM89.128 101.548H99.528V102.556H89.128V101.548ZM89.368 109.036H99.192V112.22H90.712V113.964H89.4V111.276H97.88V110.044H89.368V109.036ZM89.4 113.58H99.624V114.588H89.4V113.58Z" fill="#242424"/>
<path d="M166.5 72C166.5 45.7665 187.766 24.5 214 24.5C240.234 24.5 261.5 45.7665 261.5 72C261.5 98.2335 240.234 119.5 214 119.5C187.766 119.5 166.5 98.2335 166.5 72Z" fill="#F6F7F9"/>
<path d="M166.5 72C166.5 45.7665 187.766 24.5 214 24.5C240.234 24.5 261.5 45.7665 261.5 72C261.5 98.2335 240.234 119.5 214 119.5C187.766 119.5 166.5 98.2335 166.5 72Z" stroke="#ECEEF3"/>
<path d="M221.375 57.125V61.0625C221.375 62.7708 221.193 64.2448 220.828 65.4844C220.464 66.7135 219.938 67.724 219.25 68.5156C218.573 69.2969 217.766 69.875 216.828 70.25C215.891 70.625 214.849 70.8125 213.703 70.8125C212.786 70.8125 211.932 70.6979 211.141 70.4688C210.349 70.2292 209.635 69.8594 209 69.3594C208.375 68.8594 207.833 68.2292 207.375 67.4688C206.927 66.6979 206.583 65.7812 206.344 64.7188C206.104 63.6562 205.984 62.4375 205.984 61.0625V57.125C205.984 55.4167 206.167 53.9531 206.531 52.7344C206.906 51.5052 207.432 50.5 208.109 49.7188C208.797 48.9375 209.609 48.3646 210.547 48C211.484 47.625 212.526 47.4375 213.672 47.4375C214.589 47.4375 215.438 47.5573 216.219 47.7969C217.01 48.026 217.724 48.3854 218.359 48.875C218.995 49.3646 219.536 49.9948 219.984 50.7656C220.432 51.526 220.776 52.4375 221.016 53.5C221.255 54.5521 221.375 55.7604 221.375 57.125ZM216.859 61.6562V56.5156C216.859 55.6927 216.812 54.974 216.719 54.3594C216.635 53.7448 216.505 53.224 216.328 52.7969C216.151 52.3594 215.932 52.0052 215.672 51.7344C215.411 51.4635 215.115 51.2656 214.781 51.1406C214.448 51.0156 214.078 50.9531 213.672 50.9531C213.161 50.9531 212.708 51.0521 212.312 51.25C211.927 51.4479 211.599 51.7656 211.328 52.2031C211.057 52.6302 210.849 53.2031 210.703 53.9219C210.568 54.6302 210.5 55.4948 210.5 56.5156V61.6562C210.5 62.4792 210.542 63.2031 210.625 63.8281C210.719 64.4531 210.854 64.9896 211.031 65.4375C211.219 65.875 211.438 66.2344 211.688 66.5156C211.948 66.7865 212.245 66.9844 212.578 67.1094C212.922 67.2344 213.297 67.2969 213.703 67.2969C214.203 67.2969 214.646 67.1979 215.031 67C215.427 66.7917 215.76 66.4688 216.031 66.0312C216.312 65.5833 216.521 65 216.656 64.2812C216.792 63.5625 216.859 62.6875 216.859 61.6562Z" fill="#0476CD"/>
<path d="M196.816 91.012L195.822 92.426C194.45 91.964 193.498 91.068 192.938 89.948C192.364 91.208 191.356 92.23 189.858 92.734L188.92 91.278C191.048 90.578 191.958 88.87 191.958 87.246V87.232H189.438V85.762H196.368V87.232H193.848V87.246C193.848 88.786 194.73 90.34 196.816 91.012ZM192.784 93.35V96.01H199.714V97.48H190.936V93.35H192.784ZM199.252 88.562H200.96V90.074H199.252V94.26H197.404V84.81H199.252V88.562ZM208.477 91.446H210.675V88.926H208.435C208.519 89.346 208.561 89.808 208.561 90.298C208.561 90.704 208.533 91.096 208.477 91.446ZM205.229 93.238C206.181 93.238 206.825 92.216 206.825 90.298C206.825 88.394 206.181 87.372 205.229 87.372C204.291 87.372 203.647 88.394 203.647 90.298C203.647 92.216 204.291 93.238 205.229 93.238ZM210.675 84.796H212.523V97.732H210.675V92.944H208.043C207.469 94.204 206.475 94.932 205.229 94.918C203.311 94.918 201.897 93.14 201.897 90.298C201.897 87.47 203.311 85.706 205.229 85.706C206.391 85.706 207.357 86.336 207.931 87.442H210.675V84.796ZM225.01 84.824V94.078H223.148V84.824H225.01ZM216.288 88.912C216.288 89.948 217.044 90.578 217.996 90.578C218.962 90.578 219.69 89.948 219.69 88.912C219.69 87.848 218.962 87.232 217.996 87.232C217.044 87.232 216.288 87.848 216.288 88.912ZM221.496 88.912C221.496 90.788 219.97 92.174 217.996 92.174C216.022 92.174 214.482 90.788 214.482 88.912C214.482 87.008 216.022 85.636 217.996 85.636C219.97 85.636 221.496 87.008 221.496 88.912ZM218.276 96.01H225.332V97.48H216.428V93.168H218.276V96.01ZM233.479 92.3H235.901V84.81H237.749V94.582H235.901V93.56H233.479V92.3ZM231.001 86.588C230.133 86.588 229.531 86.924 229.531 87.554C229.531 88.184 230.133 88.506 231.001 88.506C231.855 88.506 232.457 88.184 232.457 87.554C232.457 86.924 231.855 86.588 231.001 86.588ZM231.001 89.85C229.111 89.85 227.795 88.926 227.795 87.554C227.795 86.182 229.111 85.244 231.001 85.244C232.877 85.244 234.207 86.182 234.207 87.554C234.207 88.926 232.877 89.85 231.001 89.85ZM230.315 96.01H238.029V97.48H228.467V93.644H230.259V91.922C229.125 91.978 228.047 91.992 227.081 91.992L226.843 90.522C229.195 90.508 232.331 90.48 235.047 90.13L235.173 91.446C234.165 91.614 233.129 91.726 232.093 91.81V94.246H230.315V96.01Z" fill="black" fill-opacity="0.6"/>
</svg>
