<svg width="278" height="144" viewBox="0 0 278 144" fill="none" xmlns="http://www.w3.org/2000/svg">
<path d="M0.5 4C0.5 2.067 2.067 0.5 4 0.5H274C275.933 0.5 277.5 2.067 277.5 4V140C277.5 141.933 275.933 143.5 274 143.5H4C2.06701 143.5 0.5 141.933 0.5 140V4Z" fill="white"/>
<path d="M0.5 4C0.5 2.067 2.067 0.5 4 0.5H274C275.933 0.5 277.5 2.067 277.5 4V140C277.5 141.933 275.933 143.5 274 143.5H4C2.06701 143.5 0.5 141.933 0.5 140V4Z" fill="white"/>
<path d="M0.5 4C0.5 2.067 2.067 0.5 4 0.5H274C275.933 0.5 277.5 2.067 277.5 4V140C277.5 141.933 275.933 143.5 274 143.5H4C2.06701 143.5 0.5 141.933 0.5 140V4Z" stroke="#D8DEE9"/>
<path d="M0.5 4C0.5 2.067 2.067 0.5 4 0.5H274C275.933 0.5 277.5 2.067 277.5 4V140C277.5 141.933 275.933 143.5 274 143.5H4C2.06701 143.5 0.5 141.933 0.5 140V4Z" stroke="#FAB832"/>
<path d="M0.5 4C0.5 2.067 2.067 0.5 4 0.5H274C275.933 0.5 277.5 2.067 277.5 4V140C277.5 141.933 275.933 143.5 274 143.5H4C2.06701 143.5 0.5 141.933 0.5 140V4Z" stroke="#D8DEE9"/>
<path d="M19.7578 49.1953L22.0234 39.625H23.2891L23.5781 41.2188L21.1641 51H19.8047L19.7578 49.1953ZM18.5938 39.625L20.4688 49.1953L20.3125 51H18.7969L16.2734 39.625H18.5938ZM25.5703 49.1562L27.4219 39.625H29.7422L27.2266 51H25.7109L25.5703 49.1562ZM24 39.625L26.2812 49.2344L26.2188 51H24.8594L22.4297 41.2109L22.7422 39.625H24ZM35.7309 39.625V51H33.395V39.625H35.7309ZM39.2309 39.625V41.4609H29.9497V39.625H39.2309ZM40.0869 39.625H44.3291C45.1989 39.625 45.9463 39.7552 46.5713 40.0156C47.2015 40.276 47.6858 40.6615 48.0244 41.1719C48.3629 41.6823 48.5322 42.3099 48.5322 43.0547C48.5322 43.6641 48.428 44.1875 48.2197 44.625C48.0166 45.0573 47.7275 45.4193 47.3525 45.7109C46.9827 45.9974 46.5478 46.2266 46.0478 46.3984L45.3056 46.7891H41.6181L41.6025 44.9609H44.3447C44.7561 44.9609 45.0973 44.888 45.3681 44.7422C45.639 44.5964 45.8421 44.3932 45.9775 44.1328C46.1181 43.8724 46.1884 43.5703 46.1884 43.2266C46.1884 42.862 46.1207 42.5469 45.9853 42.2812C45.8499 42.0156 45.6442 41.8125 45.3681 41.6719C45.0921 41.5312 44.7457 41.4609 44.3291 41.4609H42.4306V51H40.0869V39.625ZM46.4463 51L43.8525 45.9297L46.3291 45.9141L48.9541 50.8906V51H46.4463ZM54.1538 45.2344V47H49.7397V45.2344H54.1538ZM60.1425 46.0078H57.2206L57.205 44.3984H59.6581C60.0904 44.3984 60.4446 44.3438 60.7206 44.2344C60.9967 44.1198 61.2024 43.9557 61.3378 43.7422C61.4784 43.5234 61.5488 43.2578 61.5488 42.9453C61.5488 42.5911 61.481 42.3047 61.3456 42.0859C61.2154 41.8672 61.0097 41.7083 60.7284 41.6094C60.4524 41.5104 60.0956 41.4609 59.6581 41.4609H58.0331V51H55.6894V39.625H59.6581C60.3196 39.625 60.9107 39.6875 61.4316 39.8125C61.9576 39.9375 62.4029 40.1276 62.7675 40.3828C63.1321 40.638 63.4107 40.9609 63.6034 41.3516C63.7961 41.737 63.8925 42.1953 63.8925 42.7266C63.8925 43.1953 63.7857 43.6276 63.5722 44.0234C63.3639 44.4193 63.0331 44.7422 62.58 44.9922C62.1321 45.2422 61.5461 45.3802 60.8222 45.4062L60.1425 46.0078ZM60.0409 51H56.58L57.4941 49.1719H60.0409C60.4524 49.1719 60.7883 49.1068 61.0488 48.9766C61.3092 48.8411 61.5019 48.6589 61.6269 48.4297C61.7519 48.2005 61.8144 47.9375 61.8144 47.6406C61.8144 47.3073 61.7571 47.0182 61.6425 46.7734C61.5331 46.5286 61.356 46.3411 61.1113 46.2109C60.8665 46.0755 60.5435 46.0078 60.1425 46.0078H57.8847L57.9003 44.3984H60.7128L61.2519 45.0312C61.9446 45.0208 62.5019 45.1432 62.9238 45.3984C63.3508 45.6484 63.6607 45.974 63.8534 46.375C64.0514 46.776 64.1503 47.2057 64.1503 47.6641C64.1503 48.3932 63.9915 49.0078 63.6738 49.5078C63.356 50.0026 62.8899 50.375 62.2753 50.625C61.6659 50.875 60.9211 51 60.0409 51ZM64.9281 46.8594V46.6953C64.9281 46.0755 65.0167 45.5052 65.1937 44.9844C65.3708 44.4583 65.6286 44.0026 65.9672 43.6172C66.3057 43.2318 66.7224 42.9323 67.2172 42.7188C67.712 42.5 68.2797 42.3906 68.9203 42.3906C69.5609 42.3906 70.1312 42.5 70.6312 42.7188C71.1312 42.9323 71.5505 43.2318 71.8891 43.6172C72.2328 44.0026 72.4932 44.4583 72.6703 44.9844C72.8474 45.5052 72.9359 46.0755 72.9359 46.6953V46.8594C72.9359 47.474 72.8474 48.0443 72.6703 48.5703C72.4932 49.0911 72.2328 49.5469 71.8891 49.9375C71.5505 50.3229 71.1339 50.6224 70.6391 50.8359C70.1443 51.0495 69.5766 51.1562 68.9359 51.1562C68.2953 51.1562 67.725 51.0495 67.225 50.8359C66.7302 50.6224 66.3109 50.3229 65.9672 49.9375C65.6286 49.5469 65.3708 49.0911 65.1937 48.5703C65.0167 48.0443 64.9281 47.474 64.9281 46.8594ZM67.1781 46.6953V46.8594C67.1781 47.2135 67.2094 47.5443 67.2719 47.8516C67.3344 48.1589 67.4333 48.4297 67.5687 48.6641C67.7094 48.8932 67.8917 49.0729 68.1156 49.2031C68.3396 49.3333 68.613 49.3984 68.9359 49.3984C69.2484 49.3984 69.5167 49.3333 69.7406 49.2031C69.9646 49.0729 70.1443 48.8932 70.2797 48.6641C70.4151 48.4297 70.5141 48.1589 70.5766 47.8516C70.6443 47.5443 70.6781 47.2135 70.6781 46.8594V46.6953C70.6781 46.3516 70.6443 46.0286 70.5766 45.7266C70.5141 45.4193 70.4125 45.1484 70.2719 44.9141C70.1365 44.6745 69.9568 44.487 69.7328 44.3516C69.5089 44.2161 69.238 44.1484 68.9203 44.1484C68.6026 44.1484 68.3318 44.2161 68.1078 44.3516C67.8891 44.487 67.7094 44.6745 67.5687 44.9141C67.4333 45.1484 67.3344 45.4193 67.2719 45.7266C67.2094 46.0286 67.1781 46.3516 67.1781 46.6953ZM75.4794 42.5469L76.8778 45.1172L78.3153 42.5469H80.7137L78.3231 46.6797L80.8231 51H78.4169L76.8934 48.2812L75.37 51H72.9637L75.4637 46.6797L73.0731 42.5469H75.4794ZM94.3163 45.0469V45.5859C94.3163 46.4505 94.1991 47.2266 93.9647 47.9141C93.7303 48.6016 93.3996 49.1875 92.9725 49.6719C92.5454 50.151 92.035 50.5182 91.4413 50.7734C90.8527 51.0286 90.1991 51.1562 89.4803 51.1562C88.7668 51.1562 88.1131 51.0286 87.5194 50.7734C86.9308 50.5182 86.4204 50.151 85.9881 49.6719C85.5558 49.1875 85.2199 48.6016 84.9803 47.9141C84.7459 47.2266 84.6288 46.4505 84.6288 45.5859V45.0469C84.6288 44.1771 84.7459 43.401 84.9803 42.7188C85.2147 42.0312 85.5454 41.4453 85.9725 40.9609C86.4048 40.4766 86.9152 40.1068 87.5038 39.8516C88.0975 39.5964 88.7511 39.4688 89.4647 39.4688C90.1834 39.4688 90.8371 39.5964 91.4256 39.8516C92.0194 40.1068 92.5298 40.4766 92.9569 40.9609C93.3892 41.4453 93.7225 42.0312 93.9569 42.7188C94.1965 43.401 94.3163 44.1771 94.3163 45.0469ZM91.9491 45.5859V45.0312C91.9491 44.4271 91.8944 43.8958 91.785 43.4375C91.6756 42.9792 91.5142 42.5938 91.3006 42.2812C91.0871 41.9688 90.8267 41.7344 90.5194 41.5781C90.2121 41.4167 89.8605 41.3359 89.4647 41.3359C89.0689 41.3359 88.7173 41.4167 88.41 41.5781C88.1079 41.7344 87.8501 41.9688 87.6366 42.2812C87.4282 42.5938 87.2694 42.9792 87.16 43.4375C87.0506 43.8958 86.9959 44.4271 86.9959 45.0312V45.5859C86.9959 46.1849 87.0506 46.7161 87.16 47.1797C87.2694 47.638 87.4308 48.026 87.6444 48.3438C87.8579 48.6562 88.1183 48.8932 88.4256 49.0547C88.7329 49.2161 89.0845 49.2969 89.4803 49.2969C89.8761 49.2969 90.2277 49.2161 90.535 49.0547C90.8423 48.8932 91.1001 48.6562 91.3084 48.3438C91.5168 48.026 91.6756 47.638 91.785 47.1797C91.8944 46.7161 91.9491 46.1849 91.9491 45.5859ZM100.383 48.9766V42.5469H102.633V51H100.516L100.383 48.9766ZM100.633 47.2422L101.297 47.2266C101.297 47.7891 101.232 48.3125 101.102 48.7969C100.972 49.276 100.776 49.6927 100.516 50.0469C100.256 50.3958 99.9274 50.6693 99.5316 50.8672C99.1357 51.0599 98.6696 51.1562 98.1331 51.1562C97.7217 51.1562 97.3415 51.099 96.9925 50.9844C96.6488 50.8646 96.3519 50.6797 96.1019 50.4297C95.8571 50.1745 95.6644 49.849 95.5238 49.4531C95.3883 49.0521 95.3206 48.5703 95.3206 48.0078V42.5469H97.5706V48.0234C97.5706 48.2734 97.5993 48.4844 97.6566 48.6562C97.7191 48.8281 97.805 48.9688 97.9144 49.0781C98.0238 49.1875 98.1514 49.2656 98.2972 49.3125C98.4482 49.3594 98.6149 49.3828 98.7972 49.3828C99.2607 49.3828 99.6253 49.2891 99.8909 49.1016C100.162 48.9141 100.352 48.6589 100.461 48.3359C100.576 48.0078 100.633 47.6432 100.633 47.2422ZM108.012 42.5469V44.1406H103.091V42.5469H108.012ZM104.309 40.4609H106.559V48.4531C106.559 48.6979 106.591 48.8854 106.653 49.0156C106.721 49.1458 106.82 49.237 106.95 49.2891C107.08 49.3359 107.244 49.3594 107.442 49.3594C107.583 49.3594 107.708 49.3542 107.817 49.3438C107.932 49.3281 108.028 49.3125 108.106 49.2969L108.114 50.9531C107.921 51.0156 107.713 51.0651 107.489 51.1016C107.265 51.138 107.018 51.1562 106.747 51.1562C106.252 51.1562 105.82 51.0755 105.45 50.9141C105.085 50.7474 104.804 50.4818 104.606 50.1172C104.408 49.7526 104.309 49.2734 104.309 48.6797V40.4609ZM111.189 39V51H108.931V39H111.189ZM116.459 51.1562C115.802 51.1562 115.214 51.0521 114.693 50.8438C114.172 50.6302 113.73 50.3359 113.365 49.9609C113.006 49.5859 112.73 49.151 112.537 48.6562C112.344 48.1562 112.248 47.625 112.248 47.0625V46.75C112.248 46.1094 112.339 45.5234 112.521 44.9922C112.704 44.4609 112.964 44 113.302 43.6094C113.646 43.2188 114.063 42.9193 114.552 42.7109C115.042 42.4974 115.594 42.3906 116.209 42.3906C116.808 42.3906 117.339 42.4896 117.802 42.6875C118.266 42.8854 118.654 43.1667 118.967 43.5312C119.284 43.8958 119.524 44.3333 119.685 44.8438C119.847 45.349 119.927 45.9115 119.927 46.5312V47.4688H113.209V45.9688H117.717V45.7969C117.717 45.4844 117.659 45.2057 117.545 44.9609C117.435 44.7109 117.269 44.513 117.045 44.3672C116.821 44.2214 116.534 44.1484 116.185 44.1484C115.888 44.1484 115.633 44.2135 115.42 44.3438C115.206 44.474 115.032 44.6562 114.896 44.8906C114.766 45.125 114.667 45.401 114.599 45.7188C114.537 46.0312 114.506 46.375 114.506 46.75V47.0625C114.506 47.401 114.552 47.7135 114.646 48C114.745 48.2865 114.883 48.5339 115.06 48.7422C115.243 48.9505 115.461 49.112 115.717 49.2266C115.977 49.3411 116.271 49.3984 116.599 49.3984C117.006 49.3984 117.383 49.3203 117.732 49.1641C118.086 49.0026 118.391 48.7604 118.646 48.4375L119.74 49.625C119.563 49.8802 119.321 50.125 119.013 50.3594C118.711 50.5938 118.347 50.7865 117.92 50.9375C117.493 51.0833 117.006 51.1562 116.459 51.1562ZM124.869 42.5469V44.1406H119.948V42.5469H124.869ZM121.166 40.4609H123.416V48.4531C123.416 48.6979 123.448 48.8854 123.51 49.0156C123.578 49.1458 123.677 49.237 123.807 49.2891C123.937 49.3359 124.101 49.3594 124.299 49.3594C124.44 49.3594 124.565 49.3542 124.674 49.3438C124.789 49.3281 124.885 49.3125 124.963 49.2969L124.971 50.9531C124.778 51.0156 124.57 51.0651 124.346 51.1016C124.122 51.138 123.875 51.1562 123.604 51.1562C123.109 51.1562 122.677 51.0755 122.307 50.9141C121.942 50.7474 121.661 50.4818 121.463 50.1172C121.265 49.7526 121.166 49.2734 121.166 48.6797V40.4609Z" fill="#242424"/>
<path d="M27.3344 102.303V104.5H17.6078V102.625L22.2074 97.6934C22.6697 97.179 23.0342 96.7266 23.3012 96.3359C23.5681 95.9388 23.7602 95.584 23.8773 95.2715C24.001 94.9525 24.0629 94.6497 24.0629 94.3633C24.0629 93.9336 23.9913 93.5658 23.848 93.2598C23.7048 92.9473 23.4932 92.7064 23.2133 92.5371C22.9398 92.3678 22.6013 92.2832 22.1977 92.2832C21.768 92.2832 21.3969 92.3874 21.0844 92.5957C20.7784 92.804 20.544 93.0938 20.3813 93.4648C20.225 93.8359 20.1469 94.2559 20.1469 94.7246H17.3246C17.3246 93.8783 17.5264 93.1035 17.9301 92.4004C18.3337 91.6908 18.9034 91.1276 19.6391 90.7109C20.3747 90.2878 21.2471 90.0762 22.2563 90.0762C23.2523 90.0762 24.0922 90.2389 24.7758 90.5645C25.4659 90.8835 25.9867 91.3457 26.3383 91.9512C26.6964 92.5501 26.8754 93.2663 26.8754 94.0996C26.8754 94.5684 26.8005 95.0273 26.6508 95.4766C26.501 95.9193 26.2862 96.362 26.0063 96.8047C25.7328 97.2409 25.4008 97.6836 25.0102 98.1328C24.6195 98.582 24.1866 99.0475 23.7113 99.5293L21.2406 102.303H27.3344ZM38.4531 99.1875V101.395H28.209L28.0723 99.6855L34 90.2812H36.2363L33.8145 94.334L30.8652 99.1875H38.4531ZM36.8418 90.2812V104.5H34.0293V90.2812H36.8418Z" fill="#B30435"/>
<path d="M54.312 89.284H55.656V97.044H54.312V89.284ZM46.328 97.764H47.64V99.524H54.344V97.764H55.656V103.556H46.328V97.764ZM47.64 100.58V102.484H54.344V100.58H47.64ZM47.896 89.972C50.088 89.972 51.656 91.332 51.656 93.3C51.656 95.284 50.088 96.644 47.896 96.644C45.704 96.644 44.12 95.284 44.12 93.3C44.12 91.332 45.704 89.972 47.896 89.972ZM47.896 91.076C46.456 91.076 45.416 91.988 45.416 93.3C45.416 94.612 46.456 95.524 47.896 95.524C49.336 95.524 50.376 94.612 50.376 93.3C50.376 91.988 49.336 91.076 47.896 91.076Z" fill="#242424"/>
<path d="M90.4633 90.252V104.5H87.6508V93.4941L84.2719 94.5684V92.3516L90.1605 90.252H90.4633ZM101.748 90.1348H102.158V92.3809H101.992C101.25 92.3809 100.589 92.4915 100.01 92.7129C99.4303 92.9342 98.9388 93.25 98.5352 93.6602C98.138 94.0638 97.832 94.5521 97.6172 95.125C97.4089 95.6979 97.3047 96.3392 97.3047 97.0488V99.4121C97.3047 99.9199 97.3535 100.369 97.4512 100.76C97.5553 101.144 97.7018 101.466 97.8906 101.727C98.0859 101.98 98.3138 102.173 98.5742 102.303C98.8346 102.426 99.1276 102.488 99.4531 102.488C99.7591 102.488 100.036 102.423 100.283 102.293C100.537 102.163 100.752 101.98 100.928 101.746C101.11 101.505 101.247 101.225 101.338 100.906C101.436 100.581 101.484 100.226 101.484 99.8418C101.484 99.4577 101.436 99.1029 101.338 98.7773C101.247 98.4518 101.11 98.1719 100.928 97.9375C100.745 97.6966 100.524 97.5111 100.264 97.3809C100.003 97.2507 99.7103 97.1855 99.3848 97.1855C98.9421 97.1855 98.5514 97.2897 98.2129 97.498C97.8809 97.6999 97.6204 97.9603 97.4316 98.2793C97.2428 98.5983 97.1419 98.9336 97.1289 99.2852L96.2793 98.7383C96.2988 98.237 96.403 97.7617 96.5918 97.3125C96.7871 96.8633 97.054 96.4661 97.3926 96.1211C97.7376 95.7695 98.151 95.4961 98.6328 95.3008C99.1146 95.099 99.6582 94.998 100.264 94.998C100.928 94.998 101.51 95.125 102.012 95.3789C102.52 95.6328 102.943 95.9811 103.281 96.4238C103.62 96.8665 103.874 97.3776 104.043 97.957C104.212 98.5365 104.297 99.1549 104.297 99.8125C104.297 100.503 104.183 101.144 103.955 101.736C103.734 102.329 103.411 102.846 102.988 103.289C102.572 103.732 102.07 104.077 101.484 104.324C100.898 104.572 100.241 104.695 99.5117 104.695C98.7565 104.695 98.0697 104.559 97.4512 104.285C96.8392 104.005 96.3118 103.615 95.8691 103.113C95.4264 102.612 95.0846 102.016 94.8438 101.326C94.6094 100.636 94.4922 99.8809 94.4922 99.0605V97.9668C94.4922 96.821 94.6582 95.7728 94.9902 94.8223C95.3288 93.8652 95.8138 93.0384 96.4453 92.3418C97.0768 91.6387 97.8385 91.0951 98.7305 90.7109C99.6224 90.3268 100.628 90.1348 101.748 90.1348Z" fill="#767676"/>
<path d="M115.656 96.484H116.984V98.676H115.656V96.484ZM109.8 95.7H122.856V96.724H109.8V95.7ZM115.672 89.188H116.984V90.948H115.672V89.188ZM115.608 91.076H116.776V91.3C116.776 93.572 114.072 94.788 110.872 95.06L110.488 94.036C113.336 93.86 115.608 92.852 115.608 91.3V91.076ZM115.88 91.076H117.048V91.3C117.048 92.852 119.32 93.86 122.152 94.036L121.768 95.06C118.568 94.788 115.88 93.572 115.88 91.3V91.076ZM111.128 90.548H121.528V91.556H111.128V90.548ZM111.368 98.036H121.192V101.22H112.712V102.964H111.4V100.276H119.88V99.044H111.368V98.036ZM111.4 102.58H121.624V103.588H111.4V102.58Z" fill="#242424"/>
<path d="M166 72C166 45.4903 187.49 24 214 24C240.51 24 262 45.4903 262 72C262 98.5097 240.51 120 214 120C187.49 120 166 98.5097 166 72Z" fill="#B30435"/>
<path d="M221.391 64.2656C221.391 65.6927 221.057 66.8958 220.391 67.875C219.724 68.8438 218.807 69.5781 217.641 70.0781C216.484 70.5677 215.172 70.8125 213.703 70.8125C212.234 70.8125 210.917 70.5677 209.75 70.0781C208.583 69.5781 207.661 68.8438 206.984 67.875C206.307 66.8958 205.969 65.6927 205.969 64.2656C205.969 63.3073 206.161 62.4427 206.547 61.6719C206.932 60.8906 207.469 60.224 208.156 59.6719C208.854 59.1094 209.672 58.6823 210.609 58.3906C211.547 58.0885 212.568 57.9375 213.672 57.9375C215.151 57.9375 216.474 58.1979 217.641 58.7188C218.807 59.2396 219.724 59.974 220.391 60.9219C221.057 61.8698 221.391 62.9844 221.391 64.2656ZM216.859 63.9688C216.859 63.2708 216.724 62.6719 216.453 62.1719C216.193 61.6615 215.823 61.2708 215.344 61C214.865 60.7292 214.307 60.5938 213.672 60.5938C213.036 60.5938 212.479 60.7292 212 61C211.521 61.2708 211.146 61.6615 210.875 62.1719C210.615 62.6719 210.484 63.2708 210.484 63.9688C210.484 64.6562 210.615 65.25 210.875 65.75C211.146 66.25 211.521 66.6354 212 66.9062C212.49 67.1667 213.057 67.2969 213.703 67.2969C214.349 67.2969 214.906 67.1667 215.375 66.9062C215.854 66.6354 216.219 66.25 216.469 65.75C216.729 65.25 216.859 64.6562 216.859 63.9688ZM220.906 53.7812C220.906 54.9375 220.599 55.9635 219.984 56.8594C219.37 57.7448 218.516 58.4375 217.422 58.9375C216.339 59.4375 215.099 59.6875 213.703 59.6875C212.297 59.6875 211.047 59.4375 209.953 58.9375C208.859 58.4375 208.005 57.7448 207.391 56.8594C206.776 55.9635 206.469 54.9375 206.469 53.7812C206.469 52.4062 206.776 51.25 207.391 50.3125C208.016 49.3646 208.87 48.6458 209.953 48.1562C211.047 47.6667 212.286 47.4219 213.672 47.4219C215.078 47.4219 216.323 47.6667 217.406 48.1562C218.5 48.6458 219.354 49.3646 219.969 50.3125C220.594 51.25 220.906 52.4062 220.906 53.7812ZM216.406 53.9844C216.406 53.3698 216.297 52.8385 216.078 52.3906C215.859 51.9323 215.547 51.5781 215.141 51.3281C214.745 51.0781 214.255 50.9531 213.672 50.9531C213.109 50.9531 212.625 51.0729 212.219 51.3125C211.823 51.5521 211.516 51.901 211.297 52.3594C211.089 52.8073 210.984 53.349 210.984 53.9844C210.984 54.599 211.089 55.1406 211.297 55.6094C211.516 56.0677 211.828 56.4271 212.234 56.6875C212.641 56.9479 213.13 57.0781 213.703 57.0781C214.276 57.0781 214.76 56.9479 215.156 56.6875C215.562 56.4271 215.87 56.0677 216.078 55.6094C216.297 55.1406 216.406 54.599 216.406 53.9844Z" fill="white"/>
<path d="M196.816 91.012L195.822 92.426C194.45 91.964 193.498 91.068 192.938 89.948C192.364 91.208 191.356 92.23 189.858 92.734L188.92 91.278C191.048 90.578 191.958 88.87 191.958 87.246V87.232H189.438V85.762H196.368V87.232H193.848V87.246C193.848 88.786 194.73 90.34 196.816 91.012ZM192.784 93.35V96.01H199.714V97.48H190.936V93.35H192.784ZM199.252 88.562H200.96V90.074H199.252V94.26H197.404V84.81H199.252V88.562ZM208.477 91.446H210.675V88.926H208.435C208.519 89.346 208.561 89.808 208.561 90.298C208.561 90.704 208.533 91.096 208.477 91.446ZM205.229 93.238C206.181 93.238 206.825 92.216 206.825 90.298C206.825 88.394 206.181 87.372 205.229 87.372C204.291 87.372 203.647 88.394 203.647 90.298C203.647 92.216 204.291 93.238 205.229 93.238ZM210.675 84.796H212.523V97.732H210.675V92.944H208.043C207.469 94.204 206.475 94.932 205.229 94.918C203.311 94.918 201.897 93.14 201.897 90.298C201.897 87.47 203.311 85.706 205.229 85.706C206.391 85.706 207.357 86.336 207.931 87.442H210.675V84.796ZM225.01 84.824V94.078H223.148V84.824H225.01ZM216.288 88.912C216.288 89.948 217.044 90.578 217.996 90.578C218.962 90.578 219.69 89.948 219.69 88.912C219.69 87.848 218.962 87.232 217.996 87.232C217.044 87.232 216.288 87.848 216.288 88.912ZM221.496 88.912C221.496 90.788 219.97 92.174 217.996 92.174C216.022 92.174 214.482 90.788 214.482 88.912C214.482 87.008 216.022 85.636 217.996 85.636C219.97 85.636 221.496 87.008 221.496 88.912ZM218.276 96.01H225.332V97.48H216.428V93.168H218.276V96.01ZM233.479 92.3H235.901V84.81H237.749V94.582H235.901V93.56H233.479V92.3ZM231.001 86.588C230.133 86.588 229.531 86.924 229.531 87.554C229.531 88.184 230.133 88.506 231.001 88.506C231.855 88.506 232.457 88.184 232.457 87.554C232.457 86.924 231.855 86.588 231.001 86.588ZM231.001 89.85C229.111 89.85 227.795 88.926 227.795 87.554C227.795 86.182 229.111 85.244 231.001 85.244C232.877 85.244 234.207 86.182 234.207 87.554C234.207 88.926 232.877 89.85 231.001 89.85ZM230.315 96.01H238.029V97.48H228.467V93.644H230.259V91.922C229.125 91.978 228.047 91.992 227.081 91.992L226.843 90.522C229.195 90.508 232.331 90.48 235.047 90.13L235.173 91.446C234.165 91.614 233.129 91.726 232.093 91.81V94.246H230.315V96.01Z" fill="white"/>
<path d="M230 40C230 31.1634 237.163 24 246 24C254.837 24 262 31.1634 262 40C262 48.8366 254.837 56 246 56C237.163 56 230 48.8366 230 40Z" fill="#FAB832"/>
<g clip-path="url(#clip0_2050_10417)">
<path d="M254 46.3335C254 46.7015 253.701 47.0001 253.333 47.0001H238.667C238.299 47.0001 238 46.7015 238 46.3335C238 45.2288 238.895 44.3335 240 44.3335H252C253.105 44.3335 254 45.2288 254 46.3335ZM252.807 35.1355L253.807 34.1241C254.067 33.8621 254.064 33.4408 253.802 33.1815C253.539 32.9221 253.118 32.9248 252.859 33.1868L251.859 34.1981C251.6 34.4601 251.603 34.8815 251.865 35.1408C251.995 35.2688 252.164 35.3335 252.333 35.3335C252.505 35.3335 252.677 35.2675 252.807 35.1355ZM250.259 32.9735L250.777 31.9735C250.946 31.6468 250.818 31.2441 250.491 31.0748C250.166 30.9055 249.762 31.0321 249.593 31.3601L249.075 32.3601C248.905 32.6868 249.033 33.0895 249.36 33.2588C249.457 33.3095 249.563 33.3335 249.666 33.3335C249.907 33.3335 250.14 33.2028 250.259 32.9735ZM240.135 35.1408C240.397 34.8815 240.399 34.4601 240.141 34.1981L239.141 33.1868C238.883 32.9248 238.459 32.9228 238.198 33.1815C237.936 33.4408 237.934 33.8621 238.193 34.1241L239.193 35.1355C239.323 35.2675 239.495 35.3335 239.667 35.3335C239.836 35.3335 240.006 35.2688 240.135 35.1408ZM242.64 33.2588C242.967 33.0895 243.095 32.6875 242.925 32.3601L242.407 31.3601C242.237 31.0321 241.834 30.9055 241.509 31.0748C241.182 31.2441 241.054 31.6461 241.223 31.9735L241.741 32.9735C241.86 33.2028 242.093 33.3335 242.334 33.3335C242.437 33.3335 242.542 33.3095 242.64 33.2588ZM252 39.6668V42.3335C252 42.7021 251.702 43.0001 251.333 43.0001H240.667C240.298 43.0001 240 42.7021 240 42.3335V39.6668C240 36.3581 242.691 33.6668 246 33.6668C249.309 33.6668 252 36.3581 252 39.6668ZM246.667 37.6668C246.667 37.2981 246.369 37.0001 246 37.0001C244.529 37.0001 243.333 38.1961 243.333 39.6668C243.333 40.0355 243.631 40.3335 244 40.3335C244.369 40.3335 244.667 40.0355 244.667 39.6668C244.667 38.9315 245.265 38.3335 246 38.3335C246.369 38.3335 246.667 38.0355 246.667 37.6668Z" fill="white"/>
</g>
<defs>
<clipPath id="clip0_2050_10417">
<rect width="16" height="16" fill="white" transform="translate(238 31)"/>
</clipPath>
</defs>
</svg>
