<svg width="278" height="144" viewBox="0 0 278 144" fill="none" xmlns="http://www.w3.org/2000/svg">
<path d="M0.5 4C0.5 2.067 2.067 0.5 4 0.5H274C275.933 0.5 277.5 2.067 277.5 4V140C277.5 141.933 275.933 143.5 274 143.5H4C2.06701 143.5 0.5 141.933 0.5 140V4Z" fill="white"/>
<path d="M0.5 4C0.5 2.067 2.067 0.5 4 0.5H274C275.933 0.5 277.5 2.067 277.5 4V140C277.5 141.933 275.933 143.5 274 143.5H4C2.06701 143.5 0.5 141.933 0.5 140V4Z" fill="white"/>
<path d="M0.5 4C0.5 2.067 2.067 0.5 4 0.5H274C275.933 0.5 277.5 2.067 277.5 4V140C277.5 141.933 275.933 143.5 274 143.5H4C2.06701 143.5 0.5 141.933 0.5 140V4Z" stroke="#D8DEE9"/>
<path d="M0.5 4C0.5 2.067 2.067 0.5 4 0.5H274C275.933 0.5 277.5 2.067 277.5 4V140C277.5 141.933 275.933 143.5 274 143.5H4C2.06701 143.5 0.5 141.933 0.5 140V4Z" stroke="#FAB832"/>
<path d="M0.5 4C0.5 2.067 2.067 0.5 4 0.5H274C275.933 0.5 277.5 2.067 277.5 4V140C277.5 141.933 275.933 143.5 274 143.5H4C2.06701 143.5 0.5 141.933 0.5 140V4Z" stroke="#D8DEE9"/>
<path d="M23.6094 47.2266H25.9453C25.8984 47.9922 25.6875 48.6719 25.3125 49.2656C24.9427 49.8594 24.4245 50.3229 23.7578 50.6562C23.0964 50.9896 22.2995 51.1562 21.3672 51.1562C20.638 51.1562 19.9844 51.0312 19.4062 50.7812C18.8281 50.526 18.3333 50.1615 17.9219 49.6875C17.5156 49.2135 17.2057 48.6406 16.9922 47.9688C16.7786 47.2969 16.6719 46.5443 16.6719 45.7109V44.9219C16.6719 44.0885 16.7812 43.3359 17 42.6641C17.224 41.987 17.5417 41.4115 17.9531 40.9375C18.3698 40.4635 18.8672 40.099 19.4453 39.8438C20.0234 39.5885 20.6693 39.4609 21.3828 39.4609C22.3307 39.4609 23.1302 39.6328 23.7812 39.9766C24.4375 40.3203 24.9453 40.7943 25.3047 41.3984C25.6693 42.0026 25.888 42.6901 25.9609 43.4609H23.6172C23.5911 43.0026 23.5 42.6146 23.3438 42.2969C23.1875 41.974 22.9505 41.7318 22.6328 41.5703C22.3203 41.4036 21.9036 41.3203 21.3828 41.3203C20.9922 41.3203 20.651 41.3932 20.3594 41.5391C20.0677 41.6849 19.8229 41.9062 19.625 42.2031C19.4271 42.5 19.2786 42.875 19.1797 43.3281C19.0859 43.776 19.0391 44.3021 19.0391 44.9062V45.7109C19.0391 46.2995 19.0833 46.8177 19.1719 47.2656C19.2604 47.7083 19.3958 48.0833 19.5781 48.3906C19.7656 48.6927 20.0052 48.9219 20.2969 49.0781C20.5938 49.2292 20.9505 49.3047 21.3672 49.3047C21.8568 49.3047 22.2604 49.2266 22.5781 49.0703C22.8958 48.9141 23.138 48.6823 23.3047 48.375C23.4766 48.0677 23.5781 47.6849 23.6094 47.2266ZM31.8559 39.625V51H29.52V39.625H31.8559ZM35.3559 39.625V41.4609H26.0747V39.625H35.3559ZM42.5869 47.2266H44.9228C44.8759 47.9922 44.665 48.6719 44.29 49.2656C43.9202 49.8594 43.402 50.3229 42.7353 50.6562C42.0739 50.9896 41.277 51.1562 40.3447 51.1562C39.6155 51.1562 38.9619 51.0312 38.3838 50.7812C37.8056 50.526 37.3108 50.1615 36.8994 49.6875C36.4931 49.2135 36.1832 48.6406 35.9697 47.9688C35.7561 47.2969 35.6494 46.5443 35.6494 45.7109V44.9219C35.6494 44.0885 35.7588 43.3359 35.9775 42.6641C36.2015 41.987 36.5192 41.4115 36.9306 40.9375C37.3473 40.4635 37.8447 40.099 38.4228 39.8438C39.0009 39.5885 39.6468 39.4609 40.3603 39.4609C41.3082 39.4609 42.1077 39.6328 42.7588 39.9766C43.415 40.3203 43.9228 40.7943 44.2822 41.3984C44.6468 42.0026 44.8655 42.6901 44.9384 43.4609H42.5947C42.5686 43.0026 42.4775 42.6146 42.3213 42.2969C42.165 41.974 41.928 41.7318 41.6103 41.5703C41.2978 41.4036 40.8811 41.3203 40.3603 41.3203C39.9697 41.3203 39.6285 41.3932 39.3369 41.5391C39.0452 41.6849 38.8004 41.9062 38.6025 42.2031C38.4046 42.5 38.2561 42.875 38.1572 43.3281C38.0634 43.776 38.0166 44.3021 38.0166 44.9062V45.7109C38.0166 46.2995 38.0608 46.8177 38.1494 47.2656C38.2379 47.7083 38.3733 48.0833 38.5556 48.3906C38.7431 48.6927 38.9827 48.9219 39.2744 49.0781C39.5713 49.2292 39.928 49.3047 40.3447 49.3047C40.8343 49.3047 41.2379 49.2266 41.5556 49.0703C41.8733 48.9141 42.1155 48.6823 42.2822 48.375C42.4541 48.0677 42.5556 47.6849 42.5869 47.2266ZM51.9037 48.0234C51.9037 47.8203 51.8725 47.638 51.81 47.4766C51.7527 47.3099 51.6433 47.1589 51.4819 47.0234C51.3204 46.8828 51.0939 46.7448 50.8022 46.6094C50.5105 46.474 50.1329 46.3333 49.6694 46.1875C49.1537 46.0208 48.6642 45.8333 48.2006 45.625C47.7423 45.4167 47.336 45.1745 46.9819 44.8984C46.6329 44.6172 46.3569 44.2917 46.1537 43.9219C45.9558 43.5521 45.8569 43.1224 45.8569 42.6328C45.8569 42.1589 45.961 41.7292 46.1694 41.3438C46.3777 40.9531 46.6694 40.6198 47.0444 40.3438C47.4194 40.0625 47.8621 39.8464 48.3725 39.6953C48.8881 39.5443 49.4532 39.4688 50.0678 39.4688C50.9064 39.4688 51.6381 39.6198 52.2631 39.9219C52.8881 40.224 53.3725 40.638 53.7162 41.1641C54.0652 41.6901 54.2397 42.2917 54.2397 42.9688H51.9116C51.9116 42.6354 51.8412 42.3438 51.7006 42.0938C51.5652 41.8385 51.3569 41.638 51.0756 41.4922C50.7996 41.3464 50.4506 41.2734 50.0287 41.2734C49.6225 41.2734 49.284 41.3359 49.0131 41.4609C48.7423 41.5807 48.5392 41.7448 48.4037 41.9531C48.2683 42.1562 48.2006 42.3854 48.2006 42.6406C48.2006 42.8333 48.2475 43.0078 48.3412 43.1641C48.4402 43.3203 48.586 43.4661 48.7787 43.6016C48.9715 43.737 49.2084 43.8646 49.4897 43.9844C49.7709 44.1042 50.0965 44.2214 50.4662 44.3359C51.086 44.5234 51.6303 44.7344 52.0991 44.9688C52.573 45.2031 52.9689 45.4661 53.2866 45.7578C53.6043 46.0495 53.8439 46.3802 54.0053 46.75C54.1668 47.1198 54.2475 47.5391 54.2475 48.0078C54.2475 48.5026 54.1511 48.9453 53.9584 49.3359C53.7657 49.7266 53.4871 50.0573 53.1225 50.3281C52.7579 50.599 52.323 50.8047 51.8178 50.9453C51.3126 51.0859 50.7475 51.1562 50.1225 51.1562C49.56 51.1562 49.0053 51.0833 48.4584 50.9375C47.9116 50.7865 47.4142 50.5599 46.9662 50.2578C46.5235 49.9557 46.1694 49.5703 45.9037 49.1016C45.6381 48.6328 45.5053 48.0781 45.5053 47.4375H47.8569C47.8569 47.7917 47.9116 48.0911 48.0209 48.3359C48.1303 48.5807 48.284 48.7786 48.4819 48.9297C48.685 49.0807 48.9246 49.1901 49.2006 49.2578C49.4819 49.3255 49.7892 49.3594 50.1225 49.3594C50.5287 49.3594 50.8621 49.3021 51.1225 49.1875C51.3881 49.0729 51.5834 48.9141 51.7084 48.7109C51.8386 48.5078 51.9037 48.2786 51.9037 48.0234ZM63.3187 46.0078H60.3969L60.3812 44.3984H62.8344C63.2667 44.3984 63.6208 44.3438 63.8969 44.2344C64.1729 44.1198 64.3786 43.9557 64.5141 43.7422C64.6547 43.5234 64.725 43.2578 64.725 42.9453C64.725 42.5911 64.6573 42.3047 64.5219 42.0859C64.3917 41.8672 64.1859 41.7083 63.9047 41.6094C63.6286 41.5104 63.2719 41.4609 62.8344 41.4609H61.2094V51H58.8656V39.625H62.8344C63.4958 39.625 64.087 39.6875 64.6078 39.8125C65.1339 39.9375 65.5792 40.1276 65.9437 40.3828C66.3083 40.638 66.587 40.9609 66.7797 41.3516C66.9724 41.737 67.0687 42.1953 67.0687 42.7266C67.0687 43.1953 66.962 43.6276 66.7484 44.0234C66.5401 44.4193 66.2094 44.7422 65.7562 44.9922C65.3083 45.2422 64.7224 45.3802 63.9984 45.4062L63.3187 46.0078ZM63.2172 51H59.7562L60.6703 49.1719H63.2172C63.6286 49.1719 63.9646 49.1068 64.225 48.9766C64.4854 48.8411 64.6781 48.6589 64.8031 48.4297C64.9281 48.2005 64.9906 47.9375 64.9906 47.6406C64.9906 47.3073 64.9333 47.0182 64.8187 46.7734C64.7094 46.5286 64.5323 46.3411 64.2875 46.2109C64.0427 46.0755 63.7198 46.0078 63.3187 46.0078H61.0609L61.0766 44.3984H63.8891L64.4281 45.0312C65.1208 45.0208 65.6781 45.1432 66.1 45.3984C66.5271 45.6484 66.837 45.974 67.0297 46.375C67.2276 46.776 67.3266 47.2057 67.3266 47.6641C67.3266 48.3932 67.1677 49.0078 66.85 49.5078C66.5323 50.0026 66.0661 50.375 65.4516 50.625C64.8422 50.875 64.0974 51 63.2172 51ZM73.0262 49.0938V45.3281C73.0262 45.0573 72.982 44.8255 72.8934 44.6328C72.8049 44.4349 72.6669 44.2812 72.4794 44.1719C72.2971 44.0625 72.0601 44.0078 71.7684 44.0078C71.5184 44.0078 71.3023 44.0521 71.12 44.1406C70.9377 44.224 70.7971 44.3464 70.6981 44.5078C70.5992 44.6641 70.5497 44.849 70.5497 45.0625H68.2997C68.2997 44.7031 68.383 44.362 68.5497 44.0391C68.7164 43.7161 68.9585 43.4323 69.2762 43.1875C69.594 42.9375 69.9716 42.7422 70.4091 42.6016C70.8518 42.4609 71.3466 42.3906 71.8934 42.3906C72.5497 42.3906 73.133 42.5 73.6434 42.7188C74.1539 42.9375 74.5549 43.2656 74.8466 43.7031C75.1434 44.1406 75.2919 44.6875 75.2919 45.3438V48.9609C75.2919 49.4245 75.3205 49.8047 75.3778 50.1016C75.4351 50.3932 75.5184 50.6484 75.6278 50.8672V51H73.3544C73.245 50.7708 73.1617 50.4844 73.1044 50.1406C73.0523 49.7917 73.0262 49.4427 73.0262 49.0938ZM73.3231 45.8516L73.3387 47.125H72.0809C71.7841 47.125 71.5262 47.1589 71.3075 47.2266C71.0887 47.2943 70.9091 47.3906 70.7684 47.5156C70.6278 47.6354 70.5236 47.776 70.4559 47.9375C70.3934 48.099 70.3622 48.276 70.3622 48.4688C70.3622 48.6615 70.4065 48.8359 70.495 48.9922C70.5835 49.1432 70.7111 49.263 70.8778 49.3516C71.0445 49.4349 71.2398 49.4766 71.4637 49.4766C71.8023 49.4766 72.0966 49.4089 72.3466 49.2734C72.5966 49.138 72.7893 48.9714 72.9247 48.7734C73.0653 48.5755 73.1382 48.388 73.1434 48.2109L73.7372 49.1641C73.6539 49.3776 73.5393 49.599 73.3934 49.8281C73.2528 50.0573 73.0731 50.2734 72.8544 50.4766C72.6356 50.6745 72.3726 50.8385 72.0653 50.9688C71.758 51.0938 71.3934 51.1562 70.9716 51.1562C70.4351 51.1562 69.9481 51.0495 69.5106 50.8359C69.0783 50.6172 68.7346 50.3177 68.4794 49.9375C68.2294 49.5521 68.1044 49.1146 68.1044 48.625C68.1044 48.1823 68.1877 47.7891 68.3544 47.4453C68.521 47.1016 68.7658 46.8125 69.0887 46.5781C69.4169 46.3385 69.8257 46.1589 70.3153 46.0391C70.8049 45.9141 71.3726 45.8516 72.0184 45.8516H73.3231ZM78.9212 39V51H76.6634V39H78.9212ZM82.6756 39V51H80.4178V39H82.6756ZM94.2937 47.2266H96.6297C96.5828 47.9922 96.3719 48.6719 95.9969 49.2656C95.6271 49.8594 95.1089 50.3229 94.4422 50.6562C93.7807 50.9896 92.9839 51.1562 92.0516 51.1562C91.3224 51.1562 90.6687 51.0312 90.0906 50.7812C89.5125 50.526 89.0177 50.1615 88.6062 49.6875C88.2 49.2135 87.8901 48.6406 87.6766 47.9688C87.463 47.2969 87.3562 46.5443 87.3562 45.7109V44.9219C87.3562 44.0885 87.4656 43.3359 87.6844 42.6641C87.9083 41.987 88.226 41.4115 88.6375 40.9375C89.0542 40.4635 89.5516 40.099 90.1297 39.8438C90.7078 39.5885 91.3536 39.4609 92.0672 39.4609C93.0151 39.4609 93.8146 39.6328 94.4656 39.9766C95.1219 40.3203 95.6297 40.7943 95.9891 41.3984C96.3536 42.0026 96.5724 42.6901 96.6453 43.4609H94.3016C94.2755 43.0026 94.1844 42.6146 94.0281 42.2969C93.8719 41.974 93.6349 41.7318 93.3172 41.5703C93.0047 41.4036 92.588 41.3203 92.0672 41.3203C91.6766 41.3203 91.3354 41.3932 91.0437 41.5391C90.7521 41.6849 90.5073 41.9062 90.3094 42.2031C90.1115 42.5 89.963 42.875 89.8641 43.3281C89.7703 43.776 89.7234 44.3021 89.7234 44.9062V45.7109C89.7234 46.2995 89.7677 46.8177 89.8562 47.2656C89.9448 47.7083 90.0802 48.0833 90.2625 48.3906C90.45 48.6927 90.6896 48.9219 90.9812 49.0781C91.2781 49.2292 91.6349 49.3047 92.0516 49.3047C92.5411 49.3047 92.9448 49.2266 93.2625 49.0703C93.5802 48.9141 93.8224 48.6823 93.9891 48.375C94.1609 48.0677 94.2625 47.6849 94.2937 47.2266ZM97.1888 46.8594V46.6953C97.1888 46.0755 97.2773 45.5052 97.4544 44.9844C97.6315 44.4583 97.8893 44.0026 98.2278 43.6172C98.5664 43.2318 98.983 42.9323 99.4778 42.7188C99.9726 42.5 100.54 42.3906 101.181 42.3906C101.822 42.3906 102.392 42.5 102.892 42.7188C103.392 42.9323 103.811 43.2318 104.15 43.6172C104.493 44.0026 104.754 44.4583 104.931 44.9844C105.108 45.5052 105.197 46.0755 105.197 46.6953V46.8594C105.197 47.474 105.108 48.0443 104.931 48.5703C104.754 49.0911 104.493 49.5469 104.15 49.9375C103.811 50.3229 103.394 50.6224 102.9 50.8359C102.405 51.0495 101.837 51.1562 101.197 51.1562C100.556 51.1562 99.9856 51.0495 99.4856 50.8359C98.9908 50.6224 98.5716 50.3229 98.2278 49.9375C97.8893 49.5469 97.6315 49.0911 97.4544 48.5703C97.2773 48.0443 97.1888 47.474 97.1888 46.8594ZM99.4388 46.6953V46.8594C99.4388 47.2135 99.47 47.5443 99.5325 47.8516C99.595 48.1589 99.694 48.4297 99.8294 48.6641C99.97 48.8932 100.152 49.0729 100.376 49.2031C100.6 49.3333 100.874 49.3984 101.197 49.3984C101.509 49.3984 101.777 49.3333 102.001 49.2031C102.225 49.0729 102.405 48.8932 102.54 48.6641C102.676 48.4297 102.775 48.1589 102.837 47.8516C102.905 47.5443 102.939 47.2135 102.939 46.8594V46.6953C102.939 46.3516 102.905 46.0286 102.837 45.7266C102.775 45.4193 102.673 45.1484 102.533 44.9141C102.397 44.6745 102.217 44.487 101.993 44.3516C101.769 44.2161 101.499 44.1484 101.181 44.1484C100.863 44.1484 100.592 44.2161 100.368 44.3516C100.15 44.487 99.97 44.6745 99.8294 44.9141C99.694 45.1484 99.595 45.4193 99.5325 45.7266C99.47 46.0286 99.4388 46.3516 99.4388 46.6953ZM108.474 39V51H106.217V39H108.474ZM112.229 39V51H109.971V39H112.229ZM117.499 51.1562C116.842 51.1562 116.254 51.0521 115.733 50.8438C115.212 50.6302 114.77 50.3359 114.405 49.9609C114.046 49.5859 113.77 49.151 113.577 48.6562C113.384 48.1562 113.288 47.625 113.288 47.0625V46.75C113.288 46.1094 113.379 45.5234 113.561 44.9922C113.744 44.4609 114.004 44 114.342 43.6094C114.686 43.2188 115.103 42.9193 115.592 42.7109C116.082 42.4974 116.634 42.3906 117.249 42.3906C117.848 42.3906 118.379 42.4896 118.842 42.6875C119.306 42.8854 119.694 43.1667 120.007 43.5312C120.324 43.8958 120.564 44.3333 120.725 44.8438C120.887 45.349 120.967 45.9115 120.967 46.5312V47.4688H114.249V45.9688H118.757V45.7969C118.757 45.4844 118.699 45.2057 118.585 44.9609C118.475 44.7109 118.309 44.513 118.085 44.3672C117.861 44.2214 117.574 44.1484 117.225 44.1484C116.928 44.1484 116.673 44.2135 116.46 44.3438C116.246 44.474 116.072 44.6562 115.936 44.8906C115.806 45.125 115.707 45.401 115.639 45.7188C115.577 46.0312 115.546 46.375 115.546 46.75V47.0625C115.546 47.401 115.592 47.7135 115.686 48C115.785 48.2865 115.923 48.5339 116.1 48.7422C116.283 48.9505 116.501 49.112 116.757 49.2266C117.017 49.3411 117.311 49.3984 117.639 49.3984C118.046 49.3984 118.423 49.3203 118.772 49.1641C119.126 49.0026 119.431 48.7604 119.686 48.4375L120.78 49.625C120.603 49.8802 120.361 50.125 120.053 50.3594C119.751 50.5938 119.387 50.7865 118.96 50.9375C118.533 51.0833 118.046 51.1562 117.499 51.1562ZM125.261 49.3984C125.537 49.3984 125.782 49.3464 125.995 49.2422C126.209 49.1328 126.376 48.9818 126.495 48.7891C126.62 48.5911 126.685 48.3594 126.691 48.0938H128.808C128.803 48.6875 128.644 49.2161 128.331 49.6797C128.019 50.138 127.599 50.5 127.073 50.7656C126.547 51.026 125.959 51.1562 125.308 51.1562C124.652 51.1562 124.079 51.0469 123.589 50.8281C123.105 50.6094 122.701 50.3073 122.378 49.9219C122.055 49.5312 121.813 49.0781 121.652 48.5625C121.49 48.0417 121.409 47.4844 121.409 46.8906V46.6641C121.409 46.0651 121.49 45.5078 121.652 44.9922C121.813 44.4714 122.055 44.0182 122.378 43.6328C122.701 43.2422 123.105 42.9375 123.589 42.7188C124.073 42.5 124.641 42.3906 125.292 42.3906C125.985 42.3906 126.592 42.5234 127.113 42.7891C127.639 43.0547 128.05 43.4349 128.347 43.9297C128.649 44.4193 128.803 45 128.808 45.6719H126.691C126.685 45.3906 126.626 45.1354 126.511 44.9062C126.402 44.6771 126.24 44.4948 126.027 44.3594C125.818 44.2188 125.56 44.1484 125.253 44.1484C124.925 44.1484 124.657 44.2188 124.448 44.3594C124.24 44.4948 124.079 44.6823 123.964 44.9219C123.849 45.1562 123.769 45.4245 123.722 45.7266C123.68 46.0234 123.659 46.3359 123.659 46.6641V46.8906C123.659 47.2188 123.68 47.5339 123.722 47.8359C123.764 48.138 123.842 48.4062 123.956 48.6406C124.076 48.875 124.24 49.0599 124.448 49.1953C124.657 49.3307 124.928 49.3984 125.261 49.3984ZM133.773 42.5469V44.1406H128.851V42.5469H133.773ZM130.07 40.4609H132.32V48.4531C132.32 48.6979 132.351 48.8854 132.414 49.0156C132.481 49.1458 132.58 49.237 132.711 49.2891C132.841 49.3359 133.005 49.3594 133.203 49.3594C133.343 49.3594 133.468 49.3542 133.578 49.3438C133.692 49.3281 133.789 49.3125 133.867 49.2969L133.875 50.9531C133.682 51.0156 133.474 51.0651 133.25 51.1016C133.026 51.138 132.778 51.1562 132.507 51.1562C132.013 51.1562 131.58 51.0755 131.211 50.9141C130.846 50.7474 130.565 50.4818 130.367 50.1172C130.169 49.7526 130.07 49.2734 130.07 48.6797V40.4609ZM134.012 46.8594V46.6953C134.012 46.0755 134.1 45.5052 134.278 44.9844C134.455 44.4583 134.712 44.0026 135.051 43.6172C135.389 43.2318 135.806 42.9323 136.301 42.7188C136.796 42.5 137.363 42.3906 138.004 42.3906C138.645 42.3906 139.215 42.5 139.715 42.7188C140.215 42.9323 140.634 43.2318 140.973 43.6172C141.317 44.0026 141.577 44.4583 141.754 44.9844C141.931 45.5052 142.02 46.0755 142.02 46.6953V46.8594C142.02 47.474 141.931 48.0443 141.754 48.5703C141.577 49.0911 141.317 49.5469 140.973 49.9375C140.634 50.3229 140.218 50.6224 139.723 50.8359C139.228 51.0495 138.66 51.1562 138.02 51.1562C137.379 51.1562 136.809 51.0495 136.309 50.8359C135.814 50.6224 135.395 50.3229 135.051 49.9375C134.712 49.5469 134.455 49.0911 134.278 48.5703C134.1 48.0443 134.012 47.474 134.012 46.8594ZM136.262 46.6953V46.8594C136.262 47.2135 136.293 47.5443 136.356 47.8516C136.418 48.1589 136.517 48.4297 136.653 48.6641C136.793 48.8932 136.975 49.0729 137.199 49.2031C137.423 49.3333 137.697 49.3984 138.02 49.3984C138.332 49.3984 138.6 49.3333 138.824 49.2031C139.048 49.0729 139.228 48.8932 139.363 48.6641C139.499 48.4297 139.598 48.1589 139.66 47.8516C139.728 47.5443 139.762 47.2135 139.762 46.8594V46.6953C139.762 46.3516 139.728 46.0286 139.66 45.7266C139.598 45.4193 139.496 45.1484 139.356 44.9141C139.22 44.6745 139.041 44.487 138.817 44.3516C138.593 44.2161 138.322 44.1484 138.004 44.1484C137.686 44.1484 137.416 44.2161 137.192 44.3516C136.973 44.487 136.793 44.6745 136.653 44.9141C136.517 45.1484 136.418 45.4193 136.356 45.7266C136.293 46.0286 136.262 46.3516 136.262 46.6953ZM145.173 44.3906V51H142.923V42.5469H145.04L145.173 44.3906ZM147.719 42.4922L147.68 44.5781C147.571 44.5625 147.438 44.5495 147.282 44.5391C147.131 44.5234 146.993 44.5156 146.868 44.5156C146.55 44.5156 146.274 44.5573 146.04 44.6406C145.811 44.7188 145.618 44.8359 145.462 44.9922C145.311 45.1484 145.196 45.3385 145.118 45.5625C145.045 45.7865 145.003 46.0417 144.993 46.3281L144.54 46.1875C144.54 45.6406 144.594 45.138 144.704 44.6797C144.813 44.2161 144.972 43.8125 145.18 43.4688C145.394 43.125 145.654 42.8594 145.962 42.6719C146.269 42.4844 146.62 42.3906 147.016 42.3906C147.141 42.3906 147.269 42.401 147.399 42.4219C147.529 42.4375 147.636 42.4609 147.719 42.4922ZM18.0859 58.625H20.0703L22.9922 66.9766L25.9141 58.625H27.8984L23.7891 70H22.1953L18.0859 58.625ZM17.0156 58.625H18.9922L19.3516 66.7656V70H17.0156V58.625ZM26.9922 58.625H28.9766V70H26.6328V66.7656L26.9922 58.625ZM34.9731 68.0938V64.3281C34.9731 64.0573 34.9289 63.8255 34.8403 63.6328C34.7518 63.4349 34.6138 63.2812 34.4263 63.1719C34.244 63.0625 34.007 63.0078 33.7153 63.0078C33.4653 63.0078 33.2492 63.0521 33.0669 63.1406C32.8846 63.224 32.744 63.3464 32.645 63.5078C32.546 63.6641 32.4966 63.849 32.4966 64.0625H30.2466C30.2466 63.7031 30.3299 63.362 30.4966 63.0391C30.6632 62.7161 30.9054 62.4323 31.2231 62.1875C31.5408 61.9375 31.9184 61.7422 32.3559 61.6016C32.7986 61.4609 33.2934 61.3906 33.8403 61.3906C34.4966 61.3906 35.0799 61.5 35.5903 61.7188C36.1007 61.9375 36.5018 62.2656 36.7934 62.7031C37.0903 63.1406 37.2388 63.6875 37.2388 64.3438V67.9609C37.2388 68.4245 37.2674 68.8047 37.3247 69.1016C37.382 69.3932 37.4653 69.6484 37.5747 69.8672V70H35.3013C35.1919 69.7708 35.1085 69.4844 35.0513 69.1406C34.9992 68.7917 34.9731 68.4427 34.9731 68.0938ZM35.27 64.8516L35.2856 66.125H34.0278C33.7309 66.125 33.4731 66.1589 33.2544 66.2266C33.0356 66.2943 32.8559 66.3906 32.7153 66.5156C32.5747 66.6354 32.4705 66.776 32.4028 66.9375C32.3403 67.099 32.3091 67.276 32.3091 67.4688C32.3091 67.6615 32.3533 67.8359 32.4419 67.9922C32.5304 68.1432 32.658 68.263 32.8247 68.3516C32.9914 68.4349 33.1867 68.4766 33.4106 68.4766C33.7492 68.4766 34.0434 68.4089 34.2934 68.2734C34.5434 68.138 34.7361 67.9714 34.8716 67.7734C35.0122 67.5755 35.0851 67.388 35.0903 67.2109L35.6841 68.1641C35.6007 68.3776 35.4861 68.599 35.3403 68.8281C35.1997 69.0573 35.02 69.2734 34.8013 69.4766C34.5825 69.6745 34.3195 69.8385 34.0122 69.9688C33.7049 70.0938 33.3403 70.1562 32.9184 70.1562C32.382 70.1562 31.895 70.0495 31.4575 69.8359C31.0252 69.6172 30.6815 69.3177 30.4263 68.9375C30.1763 68.5521 30.0513 68.1146 30.0513 67.625C30.0513 67.1823 30.1346 66.7891 30.3013 66.4453C30.4679 66.1016 30.7127 65.8125 31.0356 65.5781C31.3638 65.3385 31.7726 65.1589 32.2622 65.0391C32.7518 64.9141 33.3195 64.8516 33.9653 64.8516H35.27ZM40.6963 63.3516V70H38.4463V61.5469H40.5556L40.6963 63.3516ZM40.3681 65.4766H39.7588C39.7588 64.8516 39.8395 64.2891 40.0009 63.7891C40.1624 63.2839 40.389 62.8542 40.6806 62.5C40.9723 62.1406 41.3186 61.8672 41.7197 61.6797C42.1259 61.487 42.5791 61.3906 43.0791 61.3906C43.4749 61.3906 43.8369 61.4479 44.165 61.5625C44.4931 61.6771 44.7744 61.8594 45.0088 62.1094C45.2483 62.3594 45.4306 62.6901 45.5556 63.1016C45.6858 63.513 45.7509 64.0156 45.7509 64.6094V70H43.4853V64.6016C43.4853 64.2266 43.4332 63.9349 43.3291 63.7266C43.2249 63.5182 43.0713 63.3724 42.8681 63.2891C42.6702 63.2005 42.4254 63.1562 42.1338 63.1562C41.8317 63.1562 41.5686 63.2161 41.3447 63.3359C41.1259 63.4557 40.9436 63.6224 40.7978 63.8359C40.6572 64.0443 40.5504 64.2891 40.4775 64.5703C40.4046 64.8516 40.3681 65.1536 40.3681 65.4766ZM49.1772 58V70H46.9272V58H49.1772ZM48.8569 65.4766H48.2397C48.2449 64.888 48.323 64.3464 48.4741 63.8516C48.6251 63.3516 48.8412 62.9193 49.1225 62.5547C49.4037 62.1849 49.7397 61.8984 50.1303 61.6953C50.5261 61.4922 50.9636 61.3906 51.4428 61.3906C51.8595 61.3906 52.2371 61.4505 52.5756 61.5703C52.9194 61.6849 53.2136 61.8724 53.4584 62.1328C53.7084 62.388 53.9011 62.724 54.0366 63.1406C54.172 63.5573 54.2397 64.0625 54.2397 64.6562V70H51.9741V64.6406C51.9741 64.2656 51.9194 63.9714 51.81 63.7578C51.7058 63.5391 51.5522 63.3854 51.3491 63.2969C51.1511 63.2031 50.9064 63.1562 50.6147 63.1562C50.2918 63.1562 50.0157 63.2161 49.7866 63.3359C49.5626 63.4557 49.3829 63.6224 49.2475 63.8359C49.1121 64.0443 49.0131 64.2891 48.9506 64.5703C48.8881 64.8516 48.8569 65.1536 48.8569 65.4766ZM55.1113 65.8594V65.6953C55.1113 65.0755 55.1998 64.5052 55.3769 63.9844C55.554 63.4583 55.8118 63.0026 56.1503 62.6172C56.4889 62.2318 56.9055 61.9323 57.4003 61.7188C57.8951 61.5 58.4628 61.3906 59.1034 61.3906C59.7441 61.3906 60.3144 61.5 60.8144 61.7188C61.3144 61.9323 61.7336 62.2318 62.0722 62.6172C62.4159 63.0026 62.6764 63.4583 62.8534 63.9844C63.0305 64.5052 63.1191 65.0755 63.1191 65.6953V65.8594C63.1191 66.474 63.0305 67.0443 62.8534 67.5703C62.6764 68.0911 62.4159 68.5469 62.0722 68.9375C61.7336 69.3229 61.317 69.6224 60.8222 69.8359C60.3274 70.0495 59.7597 70.1562 59.1191 70.1562C58.4784 70.1562 57.9081 70.0495 57.4081 69.8359C56.9133 69.6224 56.4941 69.3229 56.1503 68.9375C55.8118 68.5469 55.554 68.0911 55.3769 67.5703C55.1998 67.0443 55.1113 66.474 55.1113 65.8594ZM57.3613 65.6953V65.8594C57.3613 66.2135 57.3925 66.5443 57.455 66.8516C57.5175 67.1589 57.6165 67.4297 57.7519 67.6641C57.8925 67.8932 58.0748 68.0729 58.2988 68.2031C58.5227 68.3333 58.7961 68.3984 59.1191 68.3984C59.4316 68.3984 59.6998 68.3333 59.9238 68.2031C60.1477 68.0729 60.3274 67.8932 60.4628 67.6641C60.5982 67.4297 60.6972 67.1589 60.7597 66.8516C60.8274 66.5443 60.8613 66.2135 60.8613 65.8594V65.6953C60.8613 65.3516 60.8274 65.0286 60.7597 64.7266C60.6972 64.4193 60.5956 64.1484 60.455 63.9141C60.3196 63.6745 60.1399 63.487 59.9159 63.3516C59.692 63.2161 59.4211 63.1484 59.1034 63.1484C58.7857 63.1484 58.5149 63.2161 58.2909 63.3516C58.0722 63.487 57.8925 63.6745 57.7519 63.9141C57.6165 64.1484 57.5175 64.4193 57.455 64.7266C57.3925 65.0286 57.3613 65.3516 57.3613 65.6953ZM66.3969 58V70H64.1391V58H66.3969ZM71.6669 70.1562C71.0106 70.1562 70.4221 70.0521 69.9012 69.8438C69.3804 69.6302 68.9377 69.3359 68.5731 68.9609C68.2137 68.5859 67.9377 68.151 67.745 67.6562C67.5523 67.1562 67.4559 66.625 67.4559 66.0625V65.75C67.4559 65.1094 67.5471 64.5234 67.7294 63.9922C67.9117 63.4609 68.1721 63 68.5106 62.6094C68.8544 62.2188 69.271 61.9193 69.7606 61.7109C70.2502 61.4974 70.8023 61.3906 71.4169 61.3906C72.0158 61.3906 72.5471 61.4896 73.0106 61.6875C73.4742 61.8854 73.8622 62.1667 74.1747 62.5312C74.4924 62.8958 74.732 63.3333 74.8934 63.8438C75.0549 64.349 75.1356 64.9115 75.1356 65.5312V66.4688H68.4169V64.9688H72.9247V64.7969C72.9247 64.4844 72.8674 64.2057 72.7528 63.9609C72.6434 63.7109 72.4768 63.513 72.2528 63.3672C72.0289 63.2214 71.7424 63.1484 71.3934 63.1484C71.0966 63.1484 70.8414 63.2135 70.6278 63.3438C70.4143 63.474 70.2398 63.6562 70.1044 63.8906C69.9742 64.125 69.8752 64.401 69.8075 64.7188C69.745 65.0312 69.7137 65.375 69.7137 65.75V66.0625C69.7137 66.401 69.7606 66.7135 69.8544 67C69.9533 67.2865 70.0914 67.5339 70.2684 67.7422C70.4507 67.9505 70.6695 68.112 70.9247 68.2266C71.1851 68.3411 71.4794 68.3984 71.8075 68.3984C72.2137 68.3984 72.5914 68.3203 72.9403 68.1641C73.2945 68.0026 73.5992 67.7604 73.8544 67.4375L74.9481 68.625C74.771 68.8802 74.5289 69.125 74.2216 69.3594C73.9195 69.5938 73.5549 69.7865 73.1278 69.9375C72.7007 70.0833 72.2137 70.1562 71.6669 70.1562Z" fill="#242424"/>
<path d="M27.3344 113.303V115.5H17.6078V113.625L22.2074 108.693C22.6697 108.179 23.0342 107.727 23.3012 107.336C23.5681 106.939 23.7602 106.584 23.8773 106.271C24.001 105.952 24.0629 105.65 24.0629 105.363C24.0629 104.934 23.9913 104.566 23.848 104.26C23.7048 103.947 23.4932 103.706 23.2133 103.537C22.9398 103.368 22.6013 103.283 22.1977 103.283C21.768 103.283 21.3969 103.387 21.0844 103.596C20.7784 103.804 20.544 104.094 20.3813 104.465C20.225 104.836 20.1469 105.256 20.1469 105.725H17.3246C17.3246 104.878 17.5264 104.104 17.9301 103.4C18.3337 102.691 18.9034 102.128 19.6391 101.711C20.3747 101.288 21.2471 101.076 22.2563 101.076C23.2523 101.076 24.0922 101.239 24.7758 101.564C25.4659 101.883 25.9867 102.346 26.3383 102.951C26.6964 103.55 26.8754 104.266 26.8754 105.1C26.8754 105.568 26.8005 106.027 26.6508 106.477C26.501 106.919 26.2862 107.362 26.0063 107.805C25.7328 108.241 25.4008 108.684 25.0102 109.133C24.6195 109.582 24.1866 110.048 23.7113 110.529L21.2406 113.303H27.3344ZM35.748 101.135H36.1582V103.381H35.9922C35.25 103.381 34.5892 103.492 34.0098 103.713C33.4303 103.934 32.9388 104.25 32.5352 104.66C32.138 105.064 31.832 105.552 31.6172 106.125C31.4089 106.698 31.3047 107.339 31.3047 108.049V110.412C31.3047 110.92 31.3535 111.369 31.4512 111.76C31.5553 112.144 31.7018 112.466 31.8906 112.727C32.0859 112.98 32.3138 113.173 32.5742 113.303C32.8346 113.426 33.1276 113.488 33.4531 113.488C33.7591 113.488 34.0358 113.423 34.2832 113.293C34.5371 113.163 34.752 112.98 34.9277 112.746C35.11 112.505 35.2467 112.225 35.3379 111.906C35.4355 111.581 35.4844 111.226 35.4844 110.842C35.4844 110.458 35.4355 110.103 35.3379 109.777C35.2467 109.452 35.11 109.172 34.9277 108.938C34.7454 108.697 34.5241 108.511 34.2637 108.381C34.0033 108.251 33.7103 108.186 33.3848 108.186C32.9421 108.186 32.5514 108.29 32.2129 108.498C31.8809 108.7 31.6204 108.96 31.4316 109.279C31.2428 109.598 31.1419 109.934 31.1289 110.285L30.2793 109.738C30.2988 109.237 30.403 108.762 30.5918 108.312C30.7871 107.863 31.054 107.466 31.3926 107.121C31.7376 106.77 32.151 106.496 32.6328 106.301C33.1146 106.099 33.6582 105.998 34.2637 105.998C34.9277 105.998 35.5104 106.125 36.0117 106.379C36.5195 106.633 36.9427 106.981 37.2812 107.424C37.6198 107.867 37.8737 108.378 38.043 108.957C38.2122 109.536 38.2969 110.155 38.2969 110.812C38.2969 111.503 38.1829 112.144 37.9551 112.736C37.7337 113.329 37.4115 113.846 36.9883 114.289C36.5716 114.732 36.0703 115.077 35.4844 115.324C34.8984 115.572 34.2409 115.695 33.5117 115.695C32.7565 115.695 32.0697 115.559 31.4512 115.285C30.8392 115.005 30.3118 114.615 29.8691 114.113C29.4264 113.612 29.0846 113.016 28.8438 112.326C28.6094 111.636 28.4922 110.881 28.4922 110.061V108.967C28.4922 107.821 28.6582 106.773 28.9902 105.822C29.3288 104.865 29.8138 104.038 30.4453 103.342C31.0768 102.639 31.8385 102.095 32.7305 101.711C33.6224 101.327 34.6283 101.135 35.748 101.135Z" fill="#B30435"/>
<path d="M54.312 100.284H55.656V108.044H54.312V100.284ZM46.328 108.764H47.64V110.524H54.344V108.764H55.656V114.556H46.328V108.764ZM47.64 111.58V113.484H54.344V111.58H47.64ZM47.896 100.972C50.088 100.972 51.656 102.332 51.656 104.3C51.656 106.284 50.088 107.644 47.896 107.644C45.704 107.644 44.12 106.284 44.12 104.3C44.12 102.332 45.704 100.972 47.896 100.972ZM47.896 102.076C46.456 102.076 45.416 102.988 45.416 104.3C45.416 105.612 46.456 106.524 47.896 106.524C49.336 106.524 50.376 105.612 50.376 104.3C50.376 102.988 49.336 102.076 47.896 102.076Z" fill="#242424"/>
<path d="M90.4633 101.252V115.5H87.6508V104.494L84.2719 105.568V103.352L90.1605 101.252H90.4633ZM104.453 110.188V112.395H94.209L94.0723 110.686L100 101.281H102.236L99.8145 105.334L96.8652 110.188H104.453ZM102.842 101.281V115.5H100.029V101.281H102.842Z" fill="#767676"/>
<path d="M115.656 107.484H116.984V109.676H115.656V107.484ZM109.8 106.7H122.856V107.724H109.8V106.7ZM115.672 100.188H116.984V101.948H115.672V100.188ZM115.608 102.076H116.776V102.3C116.776 104.572 114.072 105.788 110.872 106.06L110.488 105.036C113.336 104.86 115.608 103.852 115.608 102.3V102.076ZM115.88 102.076H117.048V102.3C117.048 103.852 119.32 104.86 122.152 105.036L121.768 106.06C118.568 105.788 115.88 104.572 115.88 102.3V102.076ZM111.128 101.548H121.528V102.556H111.128V101.548ZM111.368 109.036H121.192V112.22H112.712V113.964H111.4V111.276H119.88V110.044H111.368V109.036ZM111.4 113.58H121.624V114.588H111.4V113.58Z" fill="#242424"/>
<path d="M166 72C166 45.4903 187.49 24 214 24C240.51 24 262 45.4903 262 72C262 98.5097 240.51 120 214 120C187.49 120 166 98.5097 166 72Z" fill="#B30435"/>
<path d="M208.031 47.7031V70.5H203.531V52.8906L198.125 54.6094V51.0625L207.547 47.7031H208.031ZM231 66.9844V70.5H215.438V67.5L222.797 59.6094C223.536 58.7865 224.12 58.0625 224.547 57.4375C224.974 56.8021 225.281 56.2344 225.469 55.7344C225.667 55.224 225.766 54.7396 225.766 54.2812C225.766 53.5938 225.651 53.0052 225.422 52.5156C225.193 52.0156 224.854 51.6302 224.406 51.3594C223.969 51.0885 223.427 50.9531 222.781 50.9531C222.094 50.9531 221.5 51.1198 221 51.4531C220.51 51.7865 220.135 52.25 219.875 52.8438C219.625 53.4375 219.5 54.1094 219.5 54.8594H214.984C214.984 53.5052 215.307 52.2656 215.953 51.1406C216.599 50.0052 217.51 49.1042 218.688 48.4375C219.865 47.7604 221.26 47.4219 222.875 47.4219C224.469 47.4219 225.812 47.6823 226.906 48.2031C228.01 48.7135 228.844 49.4531 229.406 50.4219C229.979 51.3802 230.266 52.526 230.266 53.8594C230.266 54.6094 230.146 55.3438 229.906 56.0625C229.667 56.7708 229.323 57.4792 228.875 58.1875C228.438 58.8854 227.906 59.5938 227.281 60.3125C226.656 61.0312 225.964 61.776 225.203 62.5469L221.25 66.9844H231Z" fill="white"/>
<path d="M196.816 91.012L195.822 92.426C194.45 91.964 193.498 91.068 192.938 89.948C192.364 91.208 191.356 92.23 189.858 92.734L188.92 91.278C191.048 90.578 191.958 88.87 191.958 87.246V87.232H189.438V85.762H196.368V87.232H193.848V87.246C193.848 88.786 194.73 90.34 196.816 91.012ZM192.784 93.35V96.01H199.714V97.48H190.936V93.35H192.784ZM199.252 88.562H200.96V90.074H199.252V94.26H197.404V84.81H199.252V88.562ZM208.477 91.446H210.675V88.926H208.435C208.519 89.346 208.561 89.808 208.561 90.298C208.561 90.704 208.533 91.096 208.477 91.446ZM205.229 93.238C206.181 93.238 206.825 92.216 206.825 90.298C206.825 88.394 206.181 87.372 205.229 87.372C204.291 87.372 203.647 88.394 203.647 90.298C203.647 92.216 204.291 93.238 205.229 93.238ZM210.675 84.796H212.523V97.732H210.675V92.944H208.043C207.469 94.204 206.475 94.932 205.229 94.918C203.311 94.918 201.897 93.14 201.897 90.298C201.897 87.47 203.311 85.706 205.229 85.706C206.391 85.706 207.357 86.336 207.931 87.442H210.675V84.796ZM225.01 84.824V94.078H223.148V84.824H225.01ZM216.288 88.912C216.288 89.948 217.044 90.578 217.996 90.578C218.962 90.578 219.69 89.948 219.69 88.912C219.69 87.848 218.962 87.232 217.996 87.232C217.044 87.232 216.288 87.848 216.288 88.912ZM221.496 88.912C221.496 90.788 219.97 92.174 217.996 92.174C216.022 92.174 214.482 90.788 214.482 88.912C214.482 87.008 216.022 85.636 217.996 85.636C219.97 85.636 221.496 87.008 221.496 88.912ZM218.276 96.01H225.332V97.48H216.428V93.168H218.276V96.01ZM233.479 92.3H235.901V84.81H237.749V94.582H235.901V93.56H233.479V92.3ZM231.001 86.588C230.133 86.588 229.531 86.924 229.531 87.554C229.531 88.184 230.133 88.506 231.001 88.506C231.855 88.506 232.457 88.184 232.457 87.554C232.457 86.924 231.855 86.588 231.001 86.588ZM231.001 89.85C229.111 89.85 227.795 88.926 227.795 87.554C227.795 86.182 229.111 85.244 231.001 85.244C232.877 85.244 234.207 86.182 234.207 87.554C234.207 88.926 232.877 89.85 231.001 89.85ZM230.315 96.01H238.029V97.48H228.467V93.644H230.259V91.922C229.125 91.978 228.047 91.992 227.081 91.992L226.843 90.522C229.195 90.508 232.331 90.48 235.047 90.13L235.173 91.446C234.165 91.614 233.129 91.726 232.093 91.81V94.246H230.315V96.01Z" fill="white"/>
<path d="M230 40C230 31.1634 237.163 24 246 24C254.837 24 262 31.1634 262 40C262 48.8366 254.837 56 246 56C237.163 56 230 48.8366 230 40Z" fill="#FAB832"/>
<g clip-path="url(#clip0_2050_10453)">
<path d="M254 46.3335C254 46.7015 253.701 47.0001 253.333 47.0001H238.667C238.299 47.0001 238 46.7015 238 46.3335C238 45.2288 238.895 44.3335 240 44.3335H252C253.105 44.3335 254 45.2288 254 46.3335ZM252.807 35.1355L253.807 34.1241C254.067 33.8621 254.064 33.4408 253.802 33.1815C253.539 32.9221 253.118 32.9248 252.859 33.1868L251.859 34.1981C251.6 34.4601 251.603 34.8815 251.865 35.1408C251.995 35.2688 252.164 35.3335 252.333 35.3335C252.505 35.3335 252.677 35.2675 252.807 35.1355ZM250.259 32.9735L250.777 31.9735C250.946 31.6468 250.818 31.2441 250.491 31.0748C250.166 30.9055 249.762 31.0321 249.593 31.3601L249.075 32.3601C248.905 32.6868 249.033 33.0895 249.36 33.2588C249.457 33.3095 249.563 33.3335 249.666 33.3335C249.907 33.3335 250.14 33.2028 250.259 32.9735ZM240.135 35.1408C240.397 34.8815 240.399 34.4601 240.141 34.1981L239.141 33.1868C238.883 32.9248 238.459 32.9228 238.198 33.1815C237.936 33.4408 237.934 33.8621 238.193 34.1241L239.193 35.1355C239.323 35.2675 239.495 35.3335 239.667 35.3335C239.836 35.3335 240.006 35.2688 240.135 35.1408ZM242.64 33.2588C242.967 33.0895 243.095 32.6875 242.925 32.3601L242.407 31.3601C242.237 31.0321 241.834 30.9055 241.509 31.0748C241.182 31.2441 241.054 31.6461 241.223 31.9735L241.741 32.9735C241.86 33.2028 242.093 33.3335 242.334 33.3335C242.437 33.3335 242.542 33.3095 242.64 33.2588ZM252 39.6668V42.3335C252 42.7021 251.702 43.0001 251.333 43.0001H240.667C240.298 43.0001 240 42.7021 240 42.3335V39.6668C240 36.3581 242.691 33.6668 246 33.6668C249.309 33.6668 252 36.3581 252 39.6668ZM246.667 37.6668C246.667 37.2981 246.369 37.0001 246 37.0001C244.529 37.0001 243.333 38.1961 243.333 39.6668C243.333 40.0355 243.631 40.3335 244 40.3335C244.369 40.3335 244.667 40.0355 244.667 39.6668C244.667 38.9315 245.265 38.3335 246 38.3335C246.369 38.3335 246.667 38.0355 246.667 37.6668Z" fill="white"/>
</g>
<defs>
<clipPath id="clip0_2050_10453">
<rect width="16" height="16" fill="white" transform="translate(238 31)"/>
</clipPath>
</defs>
</svg>
