<svg width="280" height="40" viewBox="0 0 280 40" fill="none" xmlns="http://www.w3.org/2000/svg">
<path d="M40.3664 4.36623C40.1091 4.38738 42.1324 -1.00932 35.6077 0.168014C18.3601 3.28055 6.1708 14.7684 3.60464 18.0572C1.03847 21.3459 -6.82218 35.0615 13.9504 33.4577C34.7265 31.8538 46.2037 19.9324 47.8005 17.7364C54.0291 9.15312 51.5898 3.46385 40.3664 4.36976V4.36623ZM36.1153 1.56037C36.1153 1.56037 40.1937 0.622733 38.5228 4.66233C38.5228 4.66233 28.3639 5.62464 14.1936 14.0211C14.1936 14.0211 21.5713 3.78109 36.1188 1.5639L36.1153 1.56037ZM30.708 27.9975C20.8558 31.6705 11.5005 30.9832 9.80856 26.4536C8.1201 21.924 14.7364 15.276 24.5852 11.5994C34.4374 7.92291 43.7926 8.6138 45.4811 13.1434C47.1731 17.6729 40.5532 24.3245 30.7045 28.0011L30.708 27.9975Z" fill="#DF134C"/>
<path d="M51.2054 40L55.5728 15.2407H62.0129L61.5441 17.8809C62.6333 16.767 63.5851 16.0127 64.3993 15.6179C65.4956 15.0891 66.6553 14.8248 67.8714 14.8248C70.2754 14.8248 71.9709 15.7413 72.9579 17.5778C73.9484 19.4143 74.2058 21.6843 73.7299 24.3915C73.2047 27.3771 72.0837 29.6578 70.3741 31.2299C68.6645 32.802 66.7188 33.5881 64.5298 33.5881C63.4687 33.5881 62.5311 33.4048 61.7239 33.0453C60.9132 32.6857 60.2258 32.1464 59.6653 31.4308L58.1531 40H51.2054ZM60.8814 24.2399C60.6312 25.6534 60.7475 26.7074 61.2233 27.3948C61.6992 28.0821 62.3936 28.4241 63.3101 28.4241C64.1103 28.4241 64.8364 28.0962 65.4956 27.4371C66.1548 26.7779 66.6201 25.664 66.8985 24.0884C67.1523 22.6361 67.0572 21.5751 66.6165 20.8912C66.1724 20.2109 65.5449 19.8725 64.7342 19.8725C63.853 19.8725 63.0598 20.218 62.3549 20.9018C61.6463 21.5856 61.1564 22.6995 60.885 24.2399H60.8814Z" fill="#0060A9"/>
<path d="M24.2325 15.2301H30.8418L31.7512 26.3549L37.3312 15.2301H43.4611L45.2588 26.4465L50.1127 15.2301H56.6832L46.9755 33.0488H40.8985L39.1783 22.3259L33.7992 33.0488H27.6975L24.2325 15.2301Z" fill="#0060A9"/>
<rect width="1" height="16" transform="translate(81.9617 12)" fill="#4D4D4D"/>
<path d="M92.2257 26V17.04H94.5777V26H92.2257ZM93.4097 15.584C92.9937 15.584 92.6631 15.472 92.4177 15.248C92.1724 15.0133 92.0497 14.6987 92.0497 14.304C92.0497 13.92 92.1724 13.6107 92.4177 13.376C92.6631 13.1413 92.9937 13.024 93.4097 13.024C93.8044 13.024 94.1297 13.1413 94.3857 13.376C94.6417 13.6107 94.7697 13.92 94.7697 14.304C94.7697 14.6987 94.6417 15.0133 94.3857 15.248C94.1297 15.472 93.8044 15.584 93.4097 15.584ZM96.2851 22.272V20.576H100.653V22.272H96.2851ZM102.559 26V14.144H106.447C107.322 14.144 108.106 14.2613 108.799 14.496C109.503 14.7307 110.058 15.12 110.463 15.664C110.879 16.1973 111.087 16.9333 111.087 17.872C111.087 18.768 110.879 19.5093 110.463 20.096C110.058 20.672 109.508 21.0987 108.815 21.376C108.132 21.6533 107.364 21.792 106.511 21.792H104.927V26H102.559ZM104.927 19.92H106.351C107.162 19.92 107.764 19.7493 108.159 19.408C108.564 19.0667 108.767 18.5547 108.767 17.872C108.767 17.1893 108.554 16.7147 108.127 16.448C107.711 16.1707 107.092 16.032 106.271 16.032H104.927V19.92ZM117.615 26.224C116.57 26.224 115.647 25.9787 114.847 25.488C114.058 24.9867 113.439 24.272 112.991 23.344C112.543 22.416 112.319 21.3067 112.319 20.016C112.319 18.736 112.543 17.6427 112.991 16.736C113.439 15.8293 114.058 15.136 114.847 14.656C115.647 14.176 116.57 13.936 117.615 13.936C118.671 13.936 119.594 14.1813 120.383 14.672C121.172 15.152 121.791 15.8453 122.239 16.752C122.687 17.648 122.911 18.736 122.911 20.016C122.911 21.3067 122.687 22.416 122.239 23.344C121.791 24.272 121.172 24.9867 120.383 25.488C119.594 25.9787 118.671 26.224 117.615 26.224ZM117.615 24.176C118.202 24.176 118.708 24.0053 119.135 23.664C119.572 23.3227 119.908 22.8427 120.143 22.224C120.378 21.5947 120.495 20.8587 120.495 20.016C120.495 19.1733 120.378 18.4533 120.143 17.856C119.908 17.248 119.572 16.784 119.135 16.464C118.708 16.1333 118.202 15.968 117.615 15.968C117.028 15.968 116.516 16.1333 116.079 16.464C115.652 16.784 115.322 17.248 115.087 17.856C114.863 18.4533 114.751 19.1733 114.751 20.016C114.751 20.8587 114.863 21.5947 115.087 22.224C115.322 22.8427 115.652 23.3227 116.079 23.664C116.516 24.0053 117.028 24.176 117.615 24.176ZM128.439 26.224C127.65 26.224 126.877 26.0747 126.119 25.776C125.362 25.4773 124.695 25.0507 124.119 24.496L125.479 22.864C125.895 23.2587 126.37 23.5787 126.903 23.824C127.447 24.0587 127.975 24.176 128.487 24.176C129.106 24.176 129.575 24.0533 129.895 23.808C130.215 23.5627 130.375 23.232 130.375 22.816C130.375 22.5173 130.295 22.2827 130.135 22.112C129.986 21.9307 129.778 21.7707 129.511 21.632C129.245 21.4933 128.935 21.3547 128.583 21.216L127.015 20.528C126.621 20.368 126.237 20.1547 125.863 19.888C125.501 19.6107 125.197 19.264 124.951 18.848C124.717 18.432 124.599 17.936 124.599 17.36C124.599 16.7093 124.775 16.128 125.127 15.616C125.479 15.104 125.965 14.6987 126.583 14.4C127.202 14.0907 127.906 13.936 128.695 13.936C129.399 13.936 130.077 14.0693 130.727 14.336C131.378 14.6027 131.943 14.9813 132.423 15.472L131.223 16.944C130.85 16.6347 130.461 16.3947 130.055 16.224C129.65 16.0533 129.197 15.968 128.695 15.968C128.183 15.968 127.773 16.08 127.463 16.304C127.165 16.5173 127.015 16.8213 127.015 17.216C127.015 17.4933 127.101 17.7227 127.271 17.904C127.442 18.0853 127.666 18.2453 127.943 18.384C128.221 18.512 128.525 18.6453 128.855 18.784L130.407 19.408C130.887 19.6 131.303 19.84 131.655 20.128C132.018 20.416 132.295 20.7627 132.487 21.168C132.69 21.5733 132.791 22.064 132.791 22.64C132.791 23.28 132.615 23.872 132.263 24.416C131.922 24.96 131.426 25.3973 130.775 25.728C130.135 26.0587 129.357 26.224 128.439 26.224Z" fill="#242424"/>
<path d="M146.008 15.242H146.96V17.286C146.96 17.958 146.866 18.6207 146.68 19.274C146.493 19.918 146.232 20.5293 145.896 21.108C145.569 21.6773 145.186 22.1813 144.748 22.62C144.309 23.0587 143.838 23.404 143.334 23.656L142.662 22.732C143.119 22.508 143.548 22.2047 143.95 21.822C144.36 21.4393 144.72 21.0007 145.028 20.506C145.336 20.0113 145.574 19.4887 145.742 18.938C145.919 18.3873 146.008 17.8367 146.008 17.286V15.242ZM146.246 15.242H147.184V17.286C147.184 17.818 147.268 18.35 147.436 18.882C147.613 19.4047 147.856 19.8993 148.164 20.366C148.481 20.8233 148.84 21.2293 149.242 21.584C149.652 21.9387 150.091 22.2187 150.558 22.424L149.914 23.348C149.4 23.1053 148.92 22.7787 148.472 22.368C148.024 21.9573 147.632 21.486 147.296 20.954C146.969 20.4127 146.712 19.834 146.526 19.218C146.339 18.5927 146.246 17.9487 146.246 17.286V15.242ZM143.068 14.724H150.138V15.69H143.068V14.724ZM151.86 13.422H153.022V26.092H151.86V13.422ZM156.815 16.936H165.397V17.888H156.815V16.936ZM156.815 13.674H157.963V17.356H156.815V13.674ZM155.261 19.358H166.713V20.31H155.261V19.358ZM160.973 21.43C162.326 21.43 163.385 21.6307 164.151 22.032C164.916 22.4333 165.299 23.0027 165.299 23.74C165.299 24.468 164.916 25.0327 164.151 25.434C163.385 25.8353 162.326 26.036 160.973 26.036C159.619 26.036 158.555 25.8353 157.781 25.434C157.015 25.0327 156.633 24.468 156.633 23.74C156.633 23.0027 157.015 22.4333 157.781 22.032C158.555 21.6307 159.619 21.43 160.973 21.43ZM160.959 22.354C160.305 22.354 159.741 22.41 159.265 22.522C158.798 22.6247 158.439 22.7787 158.187 22.984C157.935 23.1893 157.809 23.4413 157.809 23.74C157.809 24.0293 157.935 24.2813 158.187 24.496C158.439 24.7013 158.798 24.86 159.265 24.972C159.741 25.0747 160.305 25.126 160.959 25.126C161.631 25.126 162.2 25.0747 162.667 24.972C163.143 24.86 163.507 24.7013 163.759 24.496C164.011 24.2813 164.137 24.0293 164.137 23.74C164.137 23.4413 164.011 23.1893 163.759 22.984C163.507 22.7787 163.143 22.6247 162.667 22.522C162.2 22.41 161.631 22.354 160.959 22.354ZM174.972 16.46H177.562V17.412H174.972V16.46ZM174.958 18.924H177.534V19.876H174.958V18.924ZM167.874 14.822H174.972V15.76H167.874V14.822ZM171.458 16.404C172.027 16.404 172.526 16.502 172.956 16.698C173.385 16.894 173.721 17.1693 173.964 17.524C174.206 17.8693 174.328 18.28 174.328 18.756C174.328 19.2227 174.206 19.6333 173.964 19.988C173.721 20.3333 173.385 20.604 172.956 20.8C172.526 20.996 172.027 21.094 171.458 21.094C170.898 21.094 170.403 20.996 169.974 20.8C169.544 20.604 169.208 20.3333 168.966 19.988C168.723 19.6333 168.602 19.2227 168.602 18.756C168.602 18.28 168.723 17.8693 168.966 17.524C169.208 17.1693 169.544 16.894 169.974 16.698C170.403 16.502 170.898 16.404 171.458 16.404ZM171.458 17.3C170.926 17.3 170.496 17.4307 170.17 17.692C169.852 17.9533 169.694 18.308 169.694 18.756C169.694 19.1947 169.852 19.5493 170.17 19.82C170.496 20.0813 170.926 20.212 171.458 20.212C171.99 20.212 172.419 20.0813 172.746 19.82C173.082 19.5493 173.25 19.1947 173.25 18.756C173.25 18.308 173.082 17.9533 172.746 17.692C172.419 17.4307 171.99 17.3 171.458 17.3ZM170.898 13.31H172.046V15.466H170.898V13.31ZM177.114 13.422H178.276V21.598H177.114V13.422ZM174.132 21.738C175.009 21.738 175.76 21.822 176.386 21.99C177.011 22.158 177.492 22.4053 177.828 22.732C178.173 23.0587 178.346 23.4507 178.346 23.908C178.346 24.356 178.173 24.7433 177.828 25.07C177.492 25.3967 177.011 25.644 176.386 25.812C175.76 25.98 175.009 26.064 174.132 26.064C173.254 26.064 172.498 25.98 171.864 25.812C171.238 25.644 170.753 25.3967 170.408 25.07C170.072 24.7433 169.904 24.356 169.904 23.908C169.904 23.4507 170.072 23.0587 170.408 22.732C170.753 22.4053 171.238 22.158 171.864 21.99C172.498 21.822 173.254 21.738 174.132 21.738ZM174.132 22.648C173.198 22.648 172.461 22.7553 171.92 22.97C171.378 23.1847 171.108 23.4973 171.108 23.908C171.108 24.3 171.378 24.608 171.92 24.832C172.461 25.056 173.198 25.168 174.132 25.168C175.056 25.168 175.784 25.056 176.316 24.832C176.857 24.608 177.128 24.3 177.128 23.908C177.128 23.4973 176.857 23.1847 176.316 22.97C175.784 22.7553 175.056 22.648 174.132 22.648ZM183.827 13.954H184.975V15.76H188.545V13.954H189.693V19.47H183.827V13.954ZM184.975 16.67V18.532H188.545V16.67H184.975ZM191.975 13.422H193.137V19.96H191.975V13.422ZM192.619 16.152H194.999V17.104H192.619V16.152ZM185.087 20.562H193.137V23.642H186.263V25.532H185.129V22.774H191.989V21.486H185.087V20.562ZM185.129 25.014H193.585V25.952H185.129V25.014ZM202.614 16.922H205.82V17.874H202.614V16.922ZM205.162 13.436H206.324V22.718H205.162V13.436ZM198.246 24.86H206.674V25.812H198.246V24.86ZM198.246 21.892H199.394V25.336H198.246V21.892ZM199.128 15.004H200.08V16.026C200.08 16.7913 199.931 17.5147 199.632 18.196C199.343 18.868 198.932 19.456 198.4 19.96C197.868 20.4547 197.252 20.8373 196.552 21.108L195.95 20.17C196.417 20.002 196.842 19.778 197.224 19.498C197.616 19.218 197.957 18.896 198.246 18.532C198.536 18.168 198.755 17.7713 198.904 17.342C199.054 16.9127 199.128 16.474 199.128 16.026V15.004ZM199.352 15.004H200.304V16.026C200.304 16.5673 200.43 17.0947 200.682 17.608C200.934 18.1213 201.294 18.5787 201.76 18.98C202.227 19.372 202.764 19.6753 203.37 19.89L202.782 20.814C202.092 20.562 201.49 20.198 200.976 19.722C200.463 19.2367 200.062 18.6767 199.772 18.042C199.492 17.4073 199.352 16.7353 199.352 16.026V15.004ZM196.314 14.458H203.076V15.41H196.314V14.458ZM211.344 19.848H222.824V20.8H211.344V19.848ZM216.594 20.45H217.77V23.362H216.594V20.45ZM212.814 24.846H221.55V25.812H212.814V24.846ZM212.814 22.116H213.976V25.112H212.814V22.116ZM217.07 13.744C217.966 13.744 218.745 13.8467 219.408 14.052C220.071 14.2573 220.584 14.5513 220.948 14.934C221.321 15.3073 221.508 15.76 221.508 16.292C221.508 16.8053 221.321 17.2533 220.948 17.636C220.584 18.0187 220.071 18.3127 219.408 18.518C218.745 18.7233 217.966 18.826 217.07 18.826C216.183 18.826 215.404 18.7233 214.732 18.518C214.069 18.3127 213.551 18.0187 213.178 17.636C212.814 17.2533 212.632 16.8053 212.632 16.292C212.632 15.76 212.814 15.3073 213.178 14.934C213.551 14.5513 214.069 14.2573 214.732 14.052C215.404 13.8467 216.183 13.744 217.07 13.744ZM217.07 14.682C216.435 14.682 215.875 14.7473 215.39 14.878C214.905 15.0087 214.527 15.1953 214.256 15.438C213.995 15.6713 213.864 15.956 213.864 16.292C213.864 16.6187 213.995 16.9033 214.256 17.146C214.527 17.3793 214.905 17.5613 215.39 17.692C215.875 17.8133 216.435 17.874 217.07 17.874C217.723 17.874 218.288 17.8133 218.764 17.692C219.24 17.5613 219.609 17.3793 219.87 17.146C220.141 16.9033 220.276 16.6187 220.276 16.292C220.276 15.956 220.141 15.6713 219.87 15.438C219.609 15.1953 219.24 15.0087 218.764 14.878C218.288 14.7473 217.723 14.682 217.07 14.682ZM229.725 15.256H233.575V16.194H229.725V15.256ZM229.725 18.168H233.575V19.12H229.725V18.168ZM227.415 14.178C228.031 14.178 228.582 14.3087 229.067 14.57C229.562 14.822 229.949 15.1767 230.229 15.634C230.518 16.082 230.663 16.6 230.663 17.188C230.663 17.776 230.518 18.2987 230.229 18.756C229.949 19.204 229.562 19.5587 229.067 19.82C228.582 20.072 228.031 20.198 227.415 20.198C226.79 20.198 226.23 20.072 225.735 19.82C225.25 19.5587 224.862 19.204 224.573 18.756C224.293 18.2987 224.153 17.776 224.153 17.188C224.153 16.6 224.293 16.082 224.573 15.634C224.862 15.1767 225.25 14.822 225.735 14.57C226.23 14.3087 226.79 14.178 227.415 14.178ZM227.415 15.172C227.004 15.172 226.636 15.256 226.309 15.424C225.982 15.592 225.726 15.83 225.539 16.138C225.352 16.4367 225.259 16.7867 225.259 17.188C225.259 17.58 225.352 17.93 225.539 18.238C225.726 18.5367 225.982 18.7747 226.309 18.952C226.636 19.12 227.004 19.204 227.415 19.204C227.826 19.204 228.19 19.12 228.507 18.952C228.834 18.7747 229.09 18.5367 229.277 18.238C229.464 17.93 229.557 17.58 229.557 17.188C229.557 16.7867 229.464 16.4367 229.277 16.138C229.09 15.83 228.834 15.592 228.507 15.424C228.19 15.256 227.826 15.172 227.415 15.172ZM233.211 13.422H234.373V20.912H233.211V13.422ZM230.201 21.22C231.078 21.22 231.83 21.318 232.455 21.514C233.08 21.7007 233.561 21.976 233.897 22.34C234.242 22.6947 234.415 23.1287 234.415 23.642C234.415 24.146 234.242 24.58 233.897 24.944C233.561 25.308 233.08 25.5833 232.455 25.77C231.83 25.966 231.078 26.064 230.201 26.064C229.333 26.064 228.582 25.966 227.947 25.77C227.322 25.5833 226.836 25.308 226.491 24.944C226.155 24.58 225.987 24.146 225.987 23.642C225.987 23.1287 226.155 22.6947 226.491 22.34C226.836 21.976 227.322 21.7007 227.947 21.514C228.582 21.318 229.333 21.22 230.201 21.22ZM230.201 22.13C229.566 22.13 229.016 22.1907 228.549 22.312C228.092 22.4333 227.737 22.606 227.485 22.83C227.242 23.054 227.121 23.3247 227.121 23.642C227.121 23.95 227.242 24.216 227.485 24.44C227.737 24.664 228.092 24.8367 228.549 24.958C229.016 25.0793 229.566 25.14 230.201 25.14C230.845 25.14 231.396 25.0793 231.853 24.958C232.31 24.8367 232.66 24.664 232.903 24.44C233.155 24.216 233.281 23.95 233.281 23.642C233.281 23.3247 233.155 23.054 232.903 22.83C232.66 22.606 232.31 22.4333 231.853 22.312C231.396 22.1907 230.845 22.13 230.201 22.13ZM239.888 14.514H240.854V16.782C240.854 17.51 240.76 18.2193 240.574 18.91C240.396 19.5913 240.14 20.2307 239.804 20.828C239.477 21.416 239.09 21.9387 238.642 22.396C238.203 22.844 237.722 23.1987 237.2 23.46L236.486 22.494C236.962 22.2793 237.405 21.9713 237.816 21.57C238.226 21.1687 238.586 20.716 238.894 20.212C239.202 19.6987 239.444 19.148 239.622 18.56C239.799 17.972 239.888 17.3793 239.888 16.782V14.514ZM240.084 14.514H241.05V16.782C241.05 17.3607 241.134 17.93 241.302 18.49C241.479 19.05 241.722 19.582 242.03 20.086C242.347 20.5807 242.706 21.0193 243.108 21.402C243.518 21.7753 243.957 22.0693 244.424 22.284L243.724 23.208C243.21 22.9653 242.734 22.6247 242.296 22.186C241.857 21.7473 241.47 21.2433 241.134 20.674C240.807 20.1047 240.55 19.4887 240.364 18.826C240.177 18.1633 240.084 17.482 240.084 16.782V14.514ZM245.754 13.422H246.916V26.106H245.754V13.422ZM254.223 14.29H255.245V15.27C255.245 15.8207 255.147 16.3433 254.951 16.838C254.764 17.3327 254.503 17.7947 254.167 18.224C253.84 18.644 253.457 19.022 253.019 19.358C252.589 19.694 252.127 19.9787 251.633 20.212C251.147 20.4453 250.653 20.6227 250.149 20.744L249.631 19.778C250.069 19.6847 250.508 19.54 250.947 19.344C251.395 19.148 251.815 18.91 252.207 18.63C252.599 18.3407 252.944 18.0187 253.243 17.664C253.551 17.3093 253.789 16.9313 253.957 16.53C254.134 16.1193 254.223 15.6993 254.223 15.27V14.29ZM254.447 14.29H255.441V15.27C255.441 15.6993 255.529 16.1193 255.707 16.53C255.884 16.9313 256.122 17.3093 256.421 17.664C256.729 18.0187 257.079 18.3407 257.471 18.63C257.863 18.91 258.278 19.1527 258.717 19.358C259.165 19.554 259.613 19.694 260.061 19.778L259.529 20.744C259.025 20.6227 258.53 20.4453 258.045 20.212C257.559 19.9787 257.097 19.694 256.659 19.358C256.229 19.022 255.847 18.644 255.511 18.224C255.175 17.7947 254.913 17.3327 254.727 16.838C254.54 16.3433 254.447 15.8207 254.447 15.27V14.29ZM249.155 23.418H260.635V24.384H249.155V23.418ZM267.2 16.6H269.356V17.552H267.2V16.6ZM262.328 19.344H263.126C263.788 19.344 264.372 19.3393 264.876 19.33C265.389 19.3113 265.87 19.2787 266.318 19.232C266.766 19.176 267.218 19.1013 267.676 19.008L267.802 19.932C267.316 20.0347 266.845 20.114 266.388 20.17C265.93 20.2167 265.44 20.2493 264.918 20.268C264.404 20.2773 263.807 20.282 263.126 20.282H262.328V19.344ZM262.328 14.248H267.116V15.2H263.448V19.89H262.328V14.248ZM263.098 16.74H266.612V17.65H263.098V16.74ZM271.316 13.422H272.422V21.038H271.316V13.422ZM268.866 13.646H269.972V20.926H268.866V13.646ZM264.106 21.64H272.422V25.924H264.106V21.64ZM271.288 22.578H265.254V24.972H271.288V22.578Z" fill="#242424"/>
</svg>
